<svg width="43" height="43" viewBox="0 0 43 43" fill="none" xmlns="http://www.w3.org/2000/svg">
<rect width="43" height="43" fill="#CD8D8D"/>
<line x1="4.8178" y1="29.5344" x2="27.1819" y2="20.8252" stroke="white"/>
<path d="M28.3488 19.2612C28.8411 18.6114 29.5473 18.3637 29.5473 17.4709C29.5473 16.2084 28.0501 16.0246 27.1799 15.4735C26.4311 14.9992 25.8504 14.1546 27.0172 13.698C28.6541 13.0575 30.6694 12.906 32.0625 11.745C33.1347 10.8515 32.2479 9.07462 31.3301 8.48253C30.3101 7.82447 29.0167 7.69816 27.8532 7.48382C27.4352 7.40683 26.884 7.50009 26.884 6.93638C26.884 5.63304 28.3009 5.8119 29.3549 5.8119C29.6999 5.8119 30.5536 5.90547 30.6052 5.39022C30.6662 4.77956 30.7301 3.93593 30.2131 3.54816" stroke="#988B89" stroke-linecap="round" stroke-linejoin="round"/>
<line x1="1.81781" y1="30.6867" x2="4.76267" y2="29.5344" stroke="#B94301"/>
<line x1="25.841" y1="21.3053" x2="27.7308" y2="21.5969" stroke="#FD2020"/>
</svg>
