<?xml version="1.0" encoding="UTF-8"?>
<svg width="66px" height="43px" viewBox="0 0 66 43" version="1.1" xmlns="http://www.w3.org/2000/svg" xmlns:xlink="http://www.w3.org/1999/xlink">
    <!-- Generator: Sketch 52.6 (67491) - http://www.bohemiancoding.com/sketch -->
    <title>Group 25</title>
    <desc>Created with Sketch.</desc>
    <g id="Desktop" stroke="none" stroke-width="1" fill="none" fill-rule="evenodd">
        <g id="Projekto-vidinis-puslapis" transform="translate(-687.000000, -3974.000000)" fill="#4A62B5">
            <g id="Group-4" transform="translate(407.000000, 3974.000000)">
                <g id="close" transform="translate(280.000000, 0.000000)">
                    <g id="Group-25">
                        <path d="M51.2161588,0 C42.8561304,0 36.2551382,6.93113561 36.2551382,15.4798261 C36.2551382,24.0285165 43.1211906,30.9596521 51.481219,30.9596521 C51.5648476,30.9596521 51.6909993,30.9480568 51.7746279,30.9466073 C48.4691708,33.6381838 44.3175053,35.260087 39.7732105,35.260087 C37.6824947,35.260087 36,36.9935956 36,39.1300435 C36,41.2664914 37.3451453,43 39.4358611,43 C54.2749823,42.9985506 66,30.6538241 66,15.4798261 C66,15.4769272 66,15.4740284 66,15.4696801 C66,6.92533792 59.5733522,0 51.2161588,0 Z" id="Path"></path>
                        <path d="M15.7230479,0 C7.09657938,0 0.273507903,6.93113561 0.273507903,15.4798261 C0.273507903,24.0285165 7.35253598,30.9596521 15.9804671,30.9596521 C16.066761,30.9596521 16.194008,30.9480568 16.280302,30.9466073 C12.8694975,33.6381838 8.58405284,35.260087 3.89492805,35.260087 C1.73757962,35.260087 0,36.9935956 0,39.1300435 C0,41.2664914 1.40995518,43 3.56730361,43 C18.8793583,42.9985506 31,30.6538241 31,15.4798261 C31,15.4769272 31,15.4740284 31,15.4696801 C31,6.92533792 24.3465912,0 15.7230479,0 Z" id="Path"></path>
                    </g>
                </g>
            </g>
        </g>
    </g>
</svg>