<?xml version="1.0" encoding="UTF-8"?>
<svg width="43px" height="44px" viewBox="0 0 43 44" version="1.1" xmlns="http://www.w3.org/2000/svg" xmlns:xlink="http://www.w3.org/1999/xlink">
    <!-- Generator: Sketch 52.6 (67491) - http://www.bohemiancoding.com/sketch -->
    <title>technology</title>
    <desc>Created with Sketch.</desc>
    <g id="Desktop" stroke="none" stroke-width="1" fill="none" fill-rule="evenodd">
        <g id="Internetinės-svetainės-2" transform="translate(-264.000000, -689.000000)" fill-rule="nonzero">
            <g id="Group-6" transform="translate(135.000000, 689.000000)">
                <g id="technology" transform="translate(129.000000, 0.000000)">
                    <path d="M14.4815783,42.5 L9.49415201,42.5 C4.8029168,42.5 1,38.7057627 1,34.0254237 L1,10.9745763 C1,6.29415254 4.8029168,2.5 9.49415201,2.5 L14.4815783,2.5 C9.80376385,2.5 6.18143273,6.29262712 6.18143273,10.9711017 L6.18143273,34.0289831 C6.18143273,38.7073729 9.80367891,42.5 14.4815783,42.5 Z M29.493548,18.1648305 L31.0969041,10.9183898 C31.506662,8.87313559 32.5141534,6.99466102 33.9923907,5.51974576 L37,2.5190678 C35.7154294,2.40262712 34.3904266,2.83449153 33.4070586,3.81559322 L28.2163673,8.99432203 C26.73813,10.4691525 25.7306386,12.3476271 25.3208807,14.3929661 L24.358918,19.1949153 L29.1720443,18.2350847 C29.2797502,18.2136441 29.3867765,18.1895763 29.493548,18.1648305 Z" id="Shape" fill="#CEE1F2"></path>
                    <path d="M25.1130326,43.5 L10.0788091,43.5 C4.52135374,43.5 0,38.9789531 0,33.421875 L0,10.578125 C0,5.02104688 4.52135374,0.5 10.0788091,0.5 L25.4489929,0.5 C26.3767472,0.5 27.1287944,1.25199609 27.1287944,2.1796875 C27.1287944,3.10737891 26.3767472,3.859375 25.4489929,3.859375 L10.0788091,3.859375 C6.37383885,3.859375 3.35960302,6.87340625 3.35960302,10.578125 L3.35960302,33.421875 C3.35960302,37.1265938 6.37383885,40.140625 10.0788091,40.140625 L25.1130326,40.140625 C28.8180028,40.140625 31.8322386,37.1265938 31.8322386,33.421875 L31.8322386,23.34375 C31.8322386,22.4160586 32.5842857,21.6640625 33.5120401,21.6640625 C34.4397945,21.6640625 35.1918416,22.4160586 35.1918416,23.34375 L35.1918416,33.421875 C35.1918416,38.9789531 30.6705719,43.5 25.1130326,43.5 Z M25.1063134,20.3717109 L29.865527,19.4205039 C32.2256481,18.9487637 34.3726864,17.7999414 36.0744933,16.098166 L41.2070429,10.9659648 C43.5976524,8.57560156 43.5976524,4.6860332 41.2070429,2.29566992 C38.8164333,-0.0947773437 34.926769,-0.0947773437 32.5361594,2.29566992 L27.4036099,7.42787109 C25.701803,9.1295625 24.5529028,11.2764551 24.0810465,13.6365 L23.1297749,18.3953906 C23.0197479,18.9460762 23.1920956,19.5152383 23.5892006,19.9123164 C23.907355,20.2304492 24.3359564,20.4042969 24.7769883,20.4042969 C24.8865113,20.4042969 24.9967903,20.3936309 25.1063134,20.3717109 Z M38.8315516,4.67116797 C39.3550617,5.19464258 39.6433996,5.89062109 39.6433996,6.63085938 C39.6433996,7.37109766 39.3550617,8.06716016 38.8315516,8.59055078 L33.699002,13.722752 C32.4677915,14.9538789 30.914563,15.7849883 29.2071288,16.1262168 L26.9181473,16.5836797 L27.3756412,14.2949375 C27.7168929,12.5875352 28.5480587,11.0343281 29.7792692,9.80328516 L34.9118187,4.67108398 C35.4353289,4.14760938 36.1313546,3.85929102 36.8716431,3.85929102 C37.6119317,3.85929102 38.3080414,4.14769336 38.8315516,4.67116797 Z" id="Shape" fill="#4A62B5"></path>
                    <path d="M27.2945736,30.7 L8.70542636,30.7 C7.76351938,30.7 7,29.98368 7,29.1 C7,28.21632 7.76351938,27.5 8.70542636,27.5 L27.2945736,27.5 C28.2364806,27.5 29,28.21632 29,29.1 C29,29.98368 28.2364806,30.7 27.2945736,30.7 Z M18.0852713,33.5 C16.9079302,33.5 15.9534884,34.39544 15.9534884,35.5 C15.9534884,36.60456 16.9079302,37.5 18.0852713,37.5 C19.2626124,37.5 20.2170543,36.60456 20.2170543,35.5 C20.2170543,34.39544 19.2626124,33.5 18.0852713,33.5 Z" id="Shape" fill="#39B54A"></path>
                </g>
            </g>
        </g>
    </g>
</svg>