<?xml version="1.0" encoding="UTF-8"?>
<svg width="55px" height="43px" viewBox="0 0 55 43" version="1.1" xmlns="http://www.w3.org/2000/svg" xmlns:xlink="http://www.w3.org/1999/xlink">
    <!-- Generator: Sketch 52.6 (67491) - http://www.bohemiancoding.com/sketch -->
    <title>Group 25</title>
    <desc>Created with Sketch.</desc>
    <g id="Desktop" stroke="none" stroke-width="1" fill="none" fill-rule="evenodd">
        <g id="Internetinių-svetainių-dizainas" transform="translate(-1126.000000, -687.000000)">
            <g id="Group-25" transform="translate(1126.000000, 687.000000)">
                <g id="Architecture" transform="translate(12.500000, 9.000000)" fill="#39B54A" fill-rule="nonzero">
                    <path d="M28.7058824,16.3287671 L28.7058824,14.6849315 C28.7058824,12.4931507 26.8235294,10.630137 24.3529412,10.630137 L17.1764706,10.630137 L17.1764706,7.78082192 C18.8235294,7.23287671 20,5.69863014 20,4.05479452 C20,1.8630137 18.1176471,0 15.6470588,0 C13.1764706,0 11.5294118,1.75342466 11.5294118,3.94520548 C11.5294118,5.69863014 12.7058824,7.12328767 14.3529412,7.67123288 L14.3529412,10.5205479 L7.17647059,10.5205479 C4.82352941,10.5205479 2.82352941,12.2739726 2.82352941,14.5753425 L2.82352941,16.2191781 C1.17647059,16.7671233 0,18.3013699 0,19.9452055 C0,22.1369863 1.88235294,24 4.35294118,24 C6.82352941,24 8.70588235,22.2465753 8.70588235,19.9452055 C8.70588235,18.1917808 7.52941176,16.7671233 5.88235294,16.2191781 L5.88235294,14.5753425 C5.88235294,13.8082192 6.47058824,13.260274 7.29411765,13.260274 L14.4705882,13.260274 L14.4705882,16.2191781 C12.8235294,16.7671233 11.6470588,18.3013699 11.6470588,19.9452055 C11.6470588,22.1369863 13.5294118,24 16,24 C18.4705882,24 20.3529412,22.2465753 20.3529412,19.9452055 C20.3529412,18.1917808 19.1764706,16.7671233 17.5294118,16.2191781 L17.5294118,13.260274 L24.7058824,13.260274 C25.5294118,13.260274 26.1176471,13.8082192 26.1176471,14.5753425 L26.1176471,16.2191781 C24.4705882,16.7671233 23.2941176,18.3013699 23.2941176,19.9452055 C23.2941176,22.1369863 25.0672349,24 27.5378232,24 C30.0084114,24 31.7188295,21.5934124 31.7188295,19.9452055 C31.7188295,18.2969985 30.4539666,16.6925178 28.7058824,16.3287671 Z M4.35294118,21.369863 C3.52941176,21.369863 2.94117647,20.8219178 2.94117647,20.0547945 C2.94117647,19.2876712 3.52941176,18.739726 4.35294118,18.739726 C5.17647059,18.739726 5.76470588,19.2876712 5.76470588,20.0547945 C5.76470588,20.8219178 5.05882353,21.369863 4.35294118,21.369863 Z M15.7647059,21.369863 C14.9411765,21.369863 14.3529412,20.8219178 14.3529412,20.0547945 C14.3529412,19.2876712 14.9411765,18.739726 15.7647059,18.739726 C16.5882353,18.739726 17.1764706,19.2876712 17.1764706,20.0547945 C17.1764706,20.8219178 16.5882353,21.369863 15.7647059,21.369863 Z M15.7647059,5.26027397 C14.9411765,5.26027397 14.3529412,4.71232877 14.3529412,3.94520548 C14.3529412,3.17808219 14.9411765,2.63013699 15.7647059,2.63013699 C16.5882353,2.63013699 17.1764706,3.17808219 17.1764706,3.94520548 C17.1764706,4.71232877 16.5882353,5.26027397 15.7647059,5.26027397 Z M27.2941176,21.369863 C26.4705882,21.369863 25.8823529,20.8219178 25.8823529,20.0547945 C25.8823529,19.2876712 26.4705882,18.739726 27.2941176,18.739726 C28.1176471,18.739726 28.7058824,19.2876712 28.7058824,20.0547945 C28.7058824,20.8219178 28,21.369863 27.2941176,21.369863 Z" id="Shape"></path>
                </g>
                <path d="M9.57282411,29.5647198 L9.57282411,12.4352802 C9.57282411,6.67201648 14.0173349,2 19.5,2 L13.4554494,2 C7.95715423,2 3.5,6.6738956 3.5,12.4395604 L3.5,29.5604396 C3.5,35.326 7.95715423,40 13.4554494,40 L19.5,40 C14.0173349,40 9.57282411,35.3279835 9.57282411,29.5647198 Z" id="Path" fill="#CEE1F2"></path>
                <path d="M41.84375,43 L13.1540352,43 C6.17653906,43 0.5,37.2714208 0.5,30.2299579 L0.5,12.7722772 C0.5,5.72964356 6.17759375,0 13.15625,0 L41.84375,0 C48.8224062,0 54.5,5.72964356 54.5,12.7722772 L54.5,30.2277228 C54.5,37.2703564 48.8224062,43 41.84375,43 Z M13.15625,4.25742574 C8.5038125,4.25742574 4.71875,8.07718812 4.71875,12.7722772 L4.71875,30.2299579 C4.71875,34.9237698 8.50286328,38.7425743 13.1540352,38.7425743 L41.84375,38.7425743 C46.4961875,38.7425743 50.28125,34.9228119 50.28125,30.2277228 L50.28125,12.7722772 C50.28125,8.07718812 46.4961875,4.25742574 41.84375,4.25742574 L13.15625,4.25742574 Z" id="Shape" fill="#4A62B5" fill-rule="nonzero"></path>
            </g>
        </g>
    </g>
</svg>