<?xml version="1.0" encoding="UTF-8"?>
<svg width="43px" height="43px" viewBox="0 0 43 43" version="1.1" xmlns="http://www.w3.org/2000/svg" xmlns:xlink="http://www.w3.org/1999/xlink">
    <!-- Generator: Sketch 52.6 (67491) - http://www.bohemiancoding.com/sketch -->
    <title>graphic-design</title>
    <desc>Created with Sketch.</desc>
    <g id="Desktop" stroke="none" stroke-width="1" fill="none" fill-rule="evenodd">
        <g id="Internetinės-svetainės-2" transform="translate(-1132.000000, -689.000000)">
            <g id="Group-8" transform="translate(1003.000000, 689.000000)">
                <g id="graphic-design" transform="translate(129.000000, 0.000000)">
                    <path d="M24.1659283,28.6622999 C22.842611,26.6957833 22.1364366,24.3850138 22.1364366,22.0213934 L22.1364366,6.08998738 C22.1364366,4.20626788 23.169802,2.56288062 24.7046549,1.68265214 C23.9489995,1.24932455 23.072381,1 22.1364366,1 C19.2996683,1 17,3.27887218 17,6.08998738 L17,22.8740511 C17,25.2376716 17.7061744,27.548441 19.0294917,29.5149576 L22.1364366,34 L25,29.8662516 L24.1659283,28.6622999 Z" id="Path" fill="#CEE1F2"></path>
                    <path d="M21.8359375,36.0292969 C21.2823965,36.0292969 20.7643809,35.7565996 20.4511191,35.3002285 L17.4030742,30.8599746 C17.398791,30.8537598 17.3945918,30.8475449 17.3904766,30.8412461 C15.9032812,28.611125 15.1172715,26.0154199 15.1172715,23.3348906 L15.1172715,6.71875 C15.1172715,3.01403125 18.1313027,0 21.8360215,0 C25.5407402,0 28.5547715,3.01403125 28.5547715,6.71875 L28.5547715,23.3348906 C28.5547715,26.0154199 27.7687617,28.611041 26.2815664,30.8412461 C26.2773672,30.8475449 26.273168,30.8537598 26.2689687,30.8599746 L23.2209238,35.3002285 C22.9074102,35.7565156 22.3893945,36.0292969 21.8359375,36.0292969 Z M20.1790098,28.9679746 L21.8359375,31.3816855 L23.4927813,28.9681426 C24.606582,27.2938301 25.1953125,25.3460645 25.1953125,23.3348906 L25.1953125,6.71875 C25.1953125,4.86639063 23.6882969,3.359375 21.8359375,3.359375 C19.9835781,3.359375 18.4765625,4.86639063 18.4765625,6.71875 L18.4765625,23.3348906 C18.4765625,25.3460645 19.065209,27.2936621 20.1790098,28.9679746 Z M43,41.3203125 C43,40.3926211 42.2480039,39.640625 41.3203125,39.640625 L1.6796875,39.640625 C0.751996094,39.640625 0,40.3926211 0,41.3203125 C0,42.2480039 0.751996094,43 1.6796875,43 L41.3203125,43 C42.2479199,43 43,42.2479199 43,41.3203125 Z" id="Shape" fill="#4A62B5" fill-rule="nonzero"></path>
                    <path d="M31.9626235,31.52323 C31.5378383,31.52323 31.1129692,31.3676163 30.78594,31.0554908 C30.1239873,30.4237285 30.1142453,29.3898689 30.7641045,28.7463498 L34.8158563,24.7345205 C35.4658834,24.0909198 36.5292741,24.0815307 37.1911428,24.7133747 C37.8530955,25.345137 37.8628375,26.3789966 37.2129783,27.0225156 L33.1612265,31.034345 C32.8323497,31.3599418 32.3975706,31.52323 31.9626235,31.52323 Z M34.7896537,36.9541976 L41.7133665,35.3325003 C42.6151742,35.1212869 43.1702167,34.2392853 42.9528691,33.3625907 C42.7355216,32.485896 41.828255,31.946065 40.9265313,32.1576049 L34.0028185,33.7793023 C33.1010108,33.9905157 32.5459683,34.8725172 32.7633158,35.7492119 C32.9487499,36.4973987 33.6365693,37 34.3948504,37 C34.5250238,37 34.6574647,36.9852224 34.7896537,36.9541976 Z M38.8005059,21.0411033 C38.8005059,22.1683638 39.7405257,23.0822066 40.9000767,23.0822066 C42.0596277,23.0822066 42.9996476,22.1683638 42.9996476,21.0411033 C42.9996476,19.9138428 42.0596277,19 40.9000767,19 C39.7405257,19 38.8005059,19.9137611 38.8005059,21.0411033 Z M12.21406,31.0554908 C12.8760127,30.4237285 12.8857547,29.3898689 12.2358955,28.7463498 L8.18414369,24.7345205 C7.53420054,24.0909198 6.47080989,24.0815307 5.80885719,24.7133747 C5.14690449,25.345137 5.13716248,26.3789966 5.78702165,27.0225156 L9.8387735,31.034345 C10.1676503,31.3600234 10.6023454,31.52323 11.0373765,31.52323 C11.4620777,31.52323 11.8871148,31.3675347 12.21406,31.0554908 Z M10.2366842,35.7492119 C10.4540317,34.8725172 9.89898919,33.9905157 8.99718151,33.7793023 L2.07346869,32.1576049 C1.17157703,31.9462283 0.264478434,32.4858143 0.0471308591,33.3625907 C-0.170216716,34.2392853 0.384825836,35.1212869 1.28663351,35.3325003 L8.21034634,36.9541976 C8.3426193,36.9852224 8.47480828,37 8.60514964,37 C9.36334667,37 10.0512501,36.4973987 10.2366842,35.7492119 Z M2.10000726,19 C0.940456268,19 0.000436403194,19.9138428 0.000436403194,21.0411033 C0.000436403194,22.1683638 0.940456268,23.0822066 2.10000726,23.0822066 C3.25955825,23.0822066 4.19957812,22.1683638 4.19957812,21.0411033 C4.19957812,19.9137611 3.25955825,19 2.10000726,19 Z" id="Shape" fill="#39B54A" fill-rule="nonzero"></path>
                </g>
            </g>
        </g>
    </g>
</svg>