<?xml version="1.0" encoding="UTF-8"?>
<svg width="43px" height="43px" viewBox="0 0 43 43" version="1.1" xmlns="http://www.w3.org/2000/svg" xmlns:xlink="http://www.w3.org/1999/xlink">
    <!-- Generator: Sketch 52.6 (67491) - http://www.bohemiancoding.com/sketch -->
    <title>Group 26</title>
    <desc>Created with Sketch.</desc>
    <g id="Desktop" stroke="none" stroke-width="1" fill="none" fill-rule="evenodd">
        <g id="Internetinės-svetainės-2" transform="translate(-1132.000000, -1026.000000)">
            <g id="Group-11" transform="translate(1003.000000, 1026.000000)">
                <g id="start-button-01" transform="translate(129.000000, 0.000000)">
                    <g id="Group-26">
                        <path d="M25.9951431,14.4916932 C26.5443382,12.1693977 28.5332963,10.4090774 31,10.0621625 C30.8540209,9.73961091 30.6123639,9.46491006 30.3048313,9.27193768 C29.4763548,8.7593594 28.5369376,9.12158138 28.4394172,9.16002476 L24.9895194,11.7357306 L24,15 L25.9951431,14.4916932 Z" id="Path" fill="#CEE1F2"></path>
                        <path d="M9.23338662,26 C9.86891984,23.1696868 11.438913,18.045417 15.6314227,13.0779285 C19.5451016,8.44050566 23.8481388,6.18615705 25.2096369,5.51529854 C27.6176942,4.34543837 30.1718032,3.49367558 32.8058918,2.98204443 C35.501911,2.45241042 38.2571712,2.27650041 41,2.45889032 L41,1 L25.9238791,2.70726475 L16.7534445,9.41419943 L11.1517089,17.5329901 L8.55598691,22.5310097 L8,24.5114038 C8.4119662,25.0081526 8.82309507,25.5043514 9.23338662,26 Z" id="Path" fill="#CEE1F2"></path>
                        <polygon id="Path" fill="#CEE1F2" points="4.4016119 21.3674009 9 14.1726872 8.4783633 13 6.24252945 13.9207048 2 21.0889868 3.77582145 22"></polygon>
                        <path d="M42.9462393,3.20988509 C42.8554841,1.50395491 41.4926717,0.141155188 39.7867256,0.0504008128 C36.3433427,-0.137723716 29.595992,0.0453617629 23.1467878,3.38121279 C19.8587771,5.08105229 16.3818003,7.96422867 13.6069376,11.2908414 L13.5061557,11.4142982 L7.20728455,11.9005665 C6.17712531,11.9766978 5.24097969,12.5276404 4.67429852,13.3912854 L0.379308283,19.8891402 C-0.0513571825,20.5435767 -0.119910145,21.3720231 0.19732657,22.0883465 C0.514563284,22.8046698 1.17410172,23.3106738 1.94814711,23.4315923 L7.25347628,24.2529574 C7.23415974,24.356258 7.21568305,24.4587186 7.19804621,24.5620192 C7.02369262,25.6250972 7.37266182,26.7070167 8.13531823,27.4678713 L15.5259937,34.8584778 C16.1511101,35.4858695 16.9994731,35.839829 17.8851308,35.8427722 C18.0669218,35.8426946 18.2483926,35.8275254 18.4276736,35.7974207 C18.5309751,35.7806239 18.6334367,35.7621474 18.7367382,35.742831 L19.5648298,41.0481107 C19.6839787,41.823988 20.1904142,42.4856093 20.9082697,42.8032175 C21.6261252,43.1208256 22.456364,43.0506028 23.1106743,42.6169349 L29.6085897,38.3203051 C30.4720514,37.7534469 31.0229383,36.8174134 31.0993226,35.7873426 L31.5855954,29.4885303 L31.7090533,29.3877493 C35.0356971,26.6162718 37.9189003,23.135968 39.6187557,19.847988 C42.9546378,13.398844 43.137725,6.65491554 42.9495987,3.20820541 L42.9462393,3.20988509 Z M28.2152794,36.2190212 L22.0003933,40.3283664 L21.2000167,35.1583012 C23.8270659,34.3856469 26.4255602,33.1485602 28.9014365,31.4915526 L28.5848132,35.5933392 C28.5654922,35.8475448 28.4296928,36.0785256 28.2169591,36.2190212 L28.2152794,36.2190212 Z M17.3056347,33.0796932 L9.91495928,25.6890867 C9.72724225,25.504372 9.64028492,25.2403746 9.68148112,24.9802603 C9.89711476,23.7059136 10.2265338,22.4534582 10.6657847,21.2379259 L21.7517978,32.3238357 C20.5369818,32.7632502 19.2854118,33.0934952 18.0119481,33.3106496 C17.7518661,33.3514176 17.4880578,33.2645242 17.3031152,33.0771736 L17.3056347,33.0796932 Z M7.40296948,14.4125328 L11.5022748,14.0959125 C9.84525177,16.5717657 8.60815349,19.1702358 7.83549197,21.7972605 L2.66789812,20.9960515 L6.77728162,14.7812233 C6.91732531,14.567887 7.14849122,14.4316711 7.40296948,14.4125328 Z M30.0915032,27.4544338 C28.3086287,28.9564547 26.3503991,30.2370189 24.2595884,31.2681547 L11.7273545,18.7360377 C12.7632002,16.6479998 14.0437268,14.6905773 15.5419508,12.9050171 C18.1102105,9.8261576 21.3033182,7.17057831 24.3041004,5.61855094 C30.2233595,2.55732813 36.4592419,2.39271917 39.6489903,2.56572655 C40.0709507,2.5886749 40.4079416,2.92566257 40.4308901,3.34761913 C40.604739,6.53901739 40.4392886,12.7731619 37.3780373,18.6923659 C35.8259954,21.6931201 33.1703914,24.886198 30.0915032,27.4544338 Z" id="Shape" fill="#4A62B5" fill-rule="nonzero"></path>
                        <path d="M29.502235,19.9999943 C32.6030272,19.9988011 35.2711731,17.8073887 35.8749513,14.765929 C36.4787296,11.7244694 34.8499809,8.68004452 31.9847768,7.4944916 C29.1195727,6.30893867 25.8159059,7.31244798 24.0941546,9.89131713 C22.3724032,12.4701863 22.7120953,15.9061701 24.9054898,18.0979711 C26.1239619,19.317854 27.7780641,20.0022819 29.502235,19.9999943 Z M26.7424533,10.7387979 C28.0590574,9.42216971 30.1223672,9.21893679 31.6705464,10.2533881 C33.2187255,11.2878395 33.8205852,13.2718664 33.1080526,14.9921188 C32.3955199,16.7123712 30.5670448,17.6897354 28.7408483,17.3264954 C26.9146518,16.9632554 25.5993543,15.3605783 25.5993381,13.4985963 C25.5980863,12.4632272 26.0094668,11.4700401 26.7424533,10.7387979 Z" id="Shape" fill="#39B54A" fill-rule="nonzero"></path>
                        <path d="M1.33193905,36 C1.68544509,35.9999246 2.02442654,35.8593529 2.27423748,35.6092396 L6.62603983,31.2575898 C7.13090069,30.7348871 7.12368047,29.9040249 6.60981192,29.3901744 C6.09594338,28.8763239 5.26505212,28.8691039 4.7423311,29.3739471 L0.390528745,33.7255969 C0.00938624341,34.1064818 -0.104764375,34.679456 0.101309473,35.1773208 C0.307383322,35.6751855 0.793094826,35.999885 1.33193905,36 Z" id="Path" fill="#39B54A"></path>
                        <path d="M9.64626957,33.3537304 C9.17448655,32.8820899 8.40972622,32.8820899 7.93794319,33.3537304 L0.353972789,40.9368954 C-0.11799093,41.4088591 -0.11799093,42.1740635 0.353972789,42.6460272 C0.825936508,43.1179909 1.59114089,43.1179909 2.06310461,42.6460272 L9.64626957,35.0620568 C10.1179101,34.5902738 10.1179101,33.8255135 9.64626957,33.3537304 Z" id="Path" fill="#39B54A"></path>
                        <path d="M11.7423132,36.3730987 L7.39047635,40.7252116 C7.05382287,41.0617278 6.92226009,41.5522955 7.04534642,42.0121225 C7.16843275,42.4719496 7.52746845,42.8311773 7.98720825,42.9544882 C8.44694805,43.0777991 8.93754654,42.9464592 9.27420001,42.609943 L13.6260369,38.25783 C14.1309017,37.7350717 14.1236815,36.9041211 13.6098088,36.3902159 C13.0959362,35.8763107 12.2650384,35.86909 11.7423132,36.3739869 L11.7423132,36.3730987 Z" id="Path" fill="#39B54A"></path>
                    </g>
                </g>
            </g>
        </g>
    </g>
</svg>