<?xml version="1.0" encoding="UTF-8"?>
<svg width="55px" height="46px" viewBox="0 0 55 46" version="1.1" xmlns="http://www.w3.org/2000/svg" xmlns:xlink="http://www.w3.org/1999/xlink">
    <!-- Generator: Sketch 52.6 (67491) - http://www.bohemiancoding.com/sketch -->
    <title>chat</title>
    <desc>Created with Sketch.</desc>
    <g id="Desktop" stroke="none" stroke-width="1" fill="none" fill-rule="evenodd">
        <g id="Internetinių-svetainių-dizainas" transform="translate(-259.000000, -686.000000)">
            <g id="chat" transform="translate(259.000000, 686.000000)">
                <rect id="Rectangle" fill="#CEE1F2" x="2.2" y="2.2" width="3.4" height="22.8"></rect>
                <path d="M33.2,0.1 L4.4,0.1 C2.1,0.1 0.2,2 0.2,4.3 L0.2,23 C0.2,25.3 2.1,27.2 4.4,27.2 L6.84923239,27.2566359 C6.84923239,27.2566359 6.84923239,27.2566359 7,28.739726 C7.21788671,30.8441117 7.37596812,32.9961323 8.00714226,32.6139168 C8.63831639,32.2317013 11.6773557,30.5110122 13.6300606,29.4303442 C14.9318639,28.7098988 16.355177,27.9331174 17.9,27.1 L33.2,27.1 C35.5,27.1 37.4,25.2 37.4,22.9 L37.4,4.2 C37.3,2 35.5,0.1 33.2,0.1 Z M12.2,27.1 L9.4,28.9 C9.7,28.3 10,27.7 10.2,27.1 L12.2,27.1 Z M34.3,22.9 C34.3,23.5 33.8,24.1 33.1,24.1 L4.3,24.1 C3.7,24.1 3.1,23.6 3.1,22.9 L3.1,4.2 C3.1,3.6 3.6,3 4.3,3 L33.1,3 C33.8,3 34.3,3.5 34.3,4.2 L34.3,22.9 Z" id="Shape" fill="#4A62B5" fill-rule="nonzero"></path>
                <path d="M49.8,22.4 L42.6,22.4 C41.8,22.4 41.1,23.1 41.1,23.9 C41.1,24.7 41.7,25.4 42.5,25.4 L49.8,25.4 C50.7,25.4 51.4,26.1 51.4,27 L51.4,37.8 C51.4,38.7 50.7,39.4 49.8,39.4 L31.9,39.4 C31,39.4 30.3,38.7 30.3,37.8 L30.3,32.2 C30.3,31.4 29.6,30.7 28.8,30.7 C28,30.7 27.3,31.4 27.3,32.2 L27.3,37.8 C27.3,40.3 29.4,42.4 31.9,42.4 L41.7,42.4 L42.7670701,43.042949 C43.2280036,43.3847907 44.7864438,44.6153525 45.1956927,44.8017391 C45.9742113,45.1563044 48.7491897,47.1828047 49.125874,44.7466052 C49.5025583,42.3104058 49.5,42.4 49.5,42.3 L50.2,42.3 C50.7,42.3 52.1,42.1 53.2,41 C54.4,39.8 54.5,38.3 54.5,37.8 L54.5,27 C54.4,24.5 52.3,22.4 49.8,22.4 Z" id="Shape" fill="#4A62B5" fill-rule="nonzero"></path>
                <g id="Group" transform="translate(9.000000, 11.000000)" fill="#39B54A">
                    <ellipse id="Oval" cx="2.2" cy="2.6" rx="2.1" ry="2"></ellipse>
                    <ellipse id="Oval" cx="10.9" cy="2.6" rx="2.1" ry="2"></ellipse>
                    <ellipse id="Oval" cx="18.5" cy="2.6" rx="2.1" ry="2"></ellipse>
                </g>
                <g id="Group" transform="translate(32.000000, 31.000000)" fill="#39B54A">
                    <ellipse id="Oval" cx="2.7" cy="2" rx="1.8" ry="1.7"></ellipse>
                    <ellipse id="Oval" cx="9.3" cy="2" rx="1.8" ry="1.7"></ellipse>
                    <ellipse id="Oval" cx="14.9" cy="2" rx="1.8" ry="1.7"></ellipse>
                </g>
            </g>
        </g>
    </g>
</svg>