<?xml version="1.0" encoding="UTF-8"?>
<svg width="43px" height="46px" viewBox="0 0 43 46" version="1.1" xmlns="http://www.w3.org/2000/svg" xmlns:xlink="http://www.w3.org/1999/xlink">
    <!-- Generator: Sketch 52.6 (67491) - http://www.bohemiancoding.com/sketch -->
    <title>Group 25</title>
    <desc>Created with Sketch.</desc>
    <g id="Desktop" stroke="none" stroke-width="1" fill="none" fill-rule="evenodd">
        <g id="Internetinės-svetainės-2" transform="translate(-699.000000, -1025.000000)">
            <g id="Group-10" transform="translate(570.000000, 1025.000000)">
                <g id="setting" transform="translate(129.000000, 0.000000)">
                    <g id="Group-25">
                        <path d="M7.89985486,11.6059451 L7.71625544,11.9344512 L7,13.4664634 L7.06531205,13.5 L8,11.5 C7.95877461,11.5260524 7.9243612,11.5624589 7.89985486,11.6059451 Z" id="Path"></path>
                        <path d="M7.18114519,10.5466563 L7.16267894,10.6135303 C7.11272455,10.6666886 7.0710245,10.7409737 7.04132924,10.8297045 L6.81885481,11.5 L7.09672802,10.5 L7.18114519,10.5466563 Z" id="Path" fill="#A0A0A0"></path>
                        <path d="M8.0295,11.4905 C8.00913175,11.4994391 7.98941657,11.509798 7.9705,11.5215 L7.9915,11.4785 L8.0295,11.4905 Z" id="Path" fill="#A0A0A0"></path>
                        <path d="M25,41.1657199 L24.7741093,42.1722821 C24.7313162,42.3612304 24.5658777,42.4964646 24.3731964,42.5 L18.2560416,42.5 C18.0625228,42.49667 17.8964522,42.3604936 17.8542665,42.1705481 L16.9188031,37.9917113 C16.8156051,37.5332468 16.4894636,37.1580192 16.0514518,36.9938189 C14.5615407,36.4340338 13.1761472,35.6256625 11.9535184,34.6026919 C11.7054593,34.3983515 11.3947633,34.2865521 11.0740966,34.2862447 C10.9330121,34.2855063 10.7927177,34.3074578 10.6585267,34.3512681 L6.61577279,35.6343964 C6.42635602,35.7037302 6.21481474,35.6257454 6.11484722,35.44973 L3.06446051,30.1464219 C2.96405374,29.9692176 2.99446,29.7463005 3.13860784,29.6028263 L6.25020921,26.7253243 C6.58808768,26.4133615 6.74965824,25.9529211 6.68129834,25.4968156 C6.55899342,24.6969439 6.4967407,23.888949 6.49506783,23.0796793 C6.49707394,22.2705217 6.55845525,21.462616 6.67871181,20.6625429 C6.74848968,20.2063029 6.58668906,19.745207 6.24762267,19.4340342 L3.14378091,16.567803 C2.99551101,16.4300117 2.9573643,16.2094469 3.05066565,16.0294093 L6.11829593,10.6966239 C6.22021391,10.5311931 6.42270439,10.4591159 6.60542665,10.5232281 L7.64004057,10.85268 L7.36759224,11.4110142 L4.62586535,16.0883638 C4.53501942,16.2580787 4.57055178,16.4681723 4.71208318,16.5981472 L7.7064283,19.3143912 C8.03598626,19.6044424 8.19614709,20.0431718 8.13148219,20.4787435 C8.01495364,21.236379 7.95558137,22.0017925 7.95387346,22.768434 C7.95479358,23.535107 8.01417051,24.3005806 8.13148219,25.0581244 C8.19748947,25.4911441 8.04225453,25.9284827 7.7184988,26.2216097 L4.71466971,28.9491244 C4.57604871,29.0839677 4.54686566,29.2965439 4.64397109,29.4641097 L7.58658552,34.4873837 C7.68540671,34.6540624 7.88793822,34.7267978 8.06940535,34.6607795 L11.970762,33.4470094 C12.1004888,33.4060211 12.2356952,33.3852617 12.3716749,33.3854539 C12.6801553,33.3855777 12.9793888,33.4913818 13.2200583,33.6854285 C14.4028611,34.6563328 15.738655,35.4217167 17.1722835,35.9499766 C17.592483,36.1016029 17.9076401,36.4570271 18.0094586,36.8941163 L18.915608,40.8527407 C18.958054,41.0337015 19.1178379,41.1621688 19.302726,41.163986 L25,41.1657199 Z" id="Path" fill="#CEE1F2"></path>
                        <path d="M41.9686711,27.5527305 L41.9572305,27.5413048 L39.3170849,25.1190412 C39.477837,23.7109082 39.477837,22.2890918 39.3170849,20.8809589 L41.9686711,18.4472695 C43.0690565,17.411322 43.3186787,15.7587704 42.5732644,14.4447339 L39.4596528,9.06671111 C38.6968671,7.74540967 37.1170958,7.13106024 35.6604834,7.58927096 L32.2370947,8.66768801 C31.1066082,7.81057756 29.8742715,7.0964613 28.5681724,6.5416156 L27.7761287,3.0259936 C27.4513544,1.54776427 26.1382731,0.495881988 24.6229149,0.500019185 L18.3745705,0.500019185 C16.8576927,0.494817629 15.5429846,1.54785429 15.2187165,3.02775141 L14.4266729,6.54337341 C13.1230048,7.09851292 11.8928118,7.81199557 10.7639109,8.66768801 L8.896448,8.07970023 L8.87972708,8.11309864 L8.79172223,8.08673147 L8.80844315,8.05245416 L7.33700204,7.58927096 C5.87260131,7.13399791 4.27883346,7.75977863 3.54751314,9.05352753 L0.418940678,14.4631909 C-0.320376741,15.7795551 -0.0622472531,17.4301643 1.04377512,18.4586953 L3.68392066,20.8809589 C3.52198936,22.2890246 3.52198936,23.7109754 3.68392066,25.1190412 L1.03233449,27.5527305 C-0.0680509311,28.588678 -0.317673115,30.2412297 0.427741163,31.5552662 L3.5413528,36.9332889 C4.27707336,38.2419792 5.87260131,38.866881 7.34052223,38.4107291 L10.7639109,37.332312 C11.8943974,38.1894225 13.1267341,38.9035388 14.4328332,39.4583845 L15.2248769,42.9740065 C15.5496512,44.4522358 16.8627325,45.5041181 18.3780907,45.4999809 L24.6264351,45.4999809 C26.124657,45.505116 27.4278034,44.4759832 27.7682083,43.0188306 C27.7726086,43.0021314 27.7770088,42.9863111 27.780529,42.9704908 L28.3235189,40.559653 L28.34376,40.4717625 L28.5725727,39.4566266 C28.6764184,39.4126814 28.7793841,39.3687361 28.8823497,39.3195174 C30.0720197,38.7847985 31.1974024,38.1175809 32.2370947,37.3305542 L35.6631235,38.4107291 C37.1257641,38.8660021 38.719532,38.2402214 39.4473321,36.9464725 L42.5785447,31.5368092 C43.3177927,30.2269107 43.0660266,28.5822157 41.9686711,27.5527305 Z M40.1416904,30.1472596 L37.0095977,35.5551651 C36.9062346,35.7236967 36.6988809,35.7970009 36.5123703,35.7309462 L32.3805426,34.4257715 C31.9254903,34.2808572 31.427862,34.377603 31.0604698,34.682412 C29.8120666,35.7188361 28.398068,36.5382645 26.8775992,37.1064333 C26.4287115,37.2707921 26.0940001,37.6514042 25.9887502,38.1171747 L25.4607211,40.4708836 L25.44048,40.5587741 L25.2644703,41.3339688 L25.0338976,42.3543781 C24.9902175,42.5459257 24.82135,42.6830203 24.624675,42.6866044 L18.3824909,42.6866044 C18.1849611,42.6832286 18.0154483,42.5451788 17.9723883,42.3526203 L17.0175357,38.1171747 C16.9121987,37.6524032 16.5792973,37.2720136 16.1322069,37.1055544 C14.6114147,36.5380685 13.1973063,35.7185765 11.9493363,34.681533 C11.6961357,34.4743816 11.3789999,34.3610441 11.0516868,34.3607325 C10.9076781,34.3599839 10.7644758,34.3822375 10.6275034,34.4266505 L6.50095595,35.7274306 C6.30761316,35.7977182 6.09168729,35.7186605 5.98964776,35.5402237 L2.87603613,30.1639588 C2.77354824,29.9843167 2.80458473,29.7583329 2.9517203,29.612885 L6.12781538,26.6957977 C6.47269701,26.3795432 6.63761643,25.9127686 6.56783964,25.4503886 C6.44299972,24.6395132 6.3794567,23.8204027 6.37774916,23 C6.37979684,22.179711 6.4424504,21.360691 6.56519949,20.5496115 C6.63642364,20.0870951 6.47126941,19.6196559 6.12517524,19.3042024 L2.95700059,16.3985408 C2.80565752,16.2588539 2.76672015,16.0352548 2.86195535,15.8527405 L5.99316796,10.4465927 C6.09719838,10.2788861 6.30388585,10.2058174 6.49039537,10.2708116 L7.54645358,10.6047957 L7.63445843,10.6320418 L7.66790028,10.6425887 L10.6266234,11.5742285 C11.0819099,11.7173905 11.5788189,11.6204537 11.9466961,11.3167092 C13.1957665,10.280282 14.610735,9.46140308 16.1322069,8.89444563 C16.5779205,8.7274856 16.9089891,8.34692054 17.0122554,7.8828254 L17.9679881,3.64386416 C18.0123787,3.4525285 18.1814602,3.31591709 18.3780907,3.31251679 L24.6264351,3.31251679 C24.8235282,3.31800534 24.9929052,3.45376195 25.040938,3.64474307 L25.9931505,7.8828254 C26.0978864,8.34799144 26.431491,8.72847503 26.8793593,8.89356673 C28.4001515,9.46105265 29.8142599,10.2805446 31.0622299,11.3175881 C31.4296221,11.622397 31.9272504,11.7191428 32.3823027,11.5742285 L36.5088501,10.2734484 C36.7019242,10.2062707 36.9156274,10.2846495 37.0192783,10.4606552 L40.1320099,15.8369202 C40.2353583,16.0162461 40.2046297,16.2426201 40.0572057,16.3879939 L36.8802306,19.3085969 C36.535349,19.6248514 36.3704296,20.091626 36.4402064,20.554006 C36.565121,21.3634091 36.6289575,22.1810424 36.6311769,23 C36.6292664,23.8203277 36.5663162,24.6393794 36.4428465,25.4503886 C36.3719458,25.9128747 36.5370474,26.380165 36.8828708,26.6957977 L40.0510454,29.6058538 C40.199326,29.7456466 40.2363686,29.9668949 40.1416904,30.1472596 Z" id="Shape" fill="#4A62B5" fill-rule="nonzero"></path>
                        <path d="M19.159127,30.4639961 C19.9646181,30.6375184 20.7679093,30.1670837 20.9534894,29.4131562 L23.947212,17.2698258 C24.0916953,16.7739608 23.9345302,16.2438507 23.5377101,15.8885963 C23.14089,15.5333419 22.5681209,15.409976 22.04533,15.56716 C21.5225392,15.7243441 21.1336561,16.1368435 21.0320747,16.641949 L18.0383521,28.7852794 C17.853457,29.5384082 18.3548946,30.2894703 19.159127,30.4639961 Z" id="Path" fill="#39B54A"></path>
                        <path d="M26.5004368,19.9025543 L30.2612453,23.0101273 L26.5004368,26.1177004 C25.9051867,26.6301182 25.8651452,27.485638 26.4103214,28.0430909 C26.9554976,28.6005439 27.885828,28.6553614 28.5040771,28.1664605 L33.5028691,24.0345074 C33.8192827,23.7732887 34,23.4009054 34,23.0101273 C34,22.6193492 33.8192827,22.246966 33.5028691,21.9857473 L28.5040771,17.8537942 C27.8881603,17.3446197 26.9394917,17.3904827 26.3851666,17.9562322 C25.8308415,18.5219817 25.8807714,19.3933797 26.4966882,19.9025543 L26.5004368,19.9025543 Z" id="Path" fill="#39B54A"></path>
                        <path d="M14.4959073,29.1461927 C14.8943345,29.4755705 15.4537989,29.5846826 15.9635558,29.4324276 C16.4733127,29.2801726 16.8559178,28.8896816 16.9672474,28.4080488 C17.0785771,27.926416 16.9017177,27.4268129 16.5032905,27.0974352 L12.7387441,23.9898659 L16.4995419,20.8822967 C17.0947903,20.3698795 17.1348317,19.5143608 16.5896571,18.9569085 C16.0444824,18.3994562 15.1141546,18.3446388 14.4959073,18.8335391 L9.49712948,22.9654871 C9.18071679,23.2267055 9,23.5990883 9,23.9898659 C9,24.3806436 9.18071679,24.7530263 9.49712948,25.0142447 L14.4959073,29.1461927 Z" id="Path" fill="#39B54A"></path>
                        <polygon id="Path" fill="#000000" points="9.05056237 8.4965 9.03385481 8.5345 8.94943763 8.5045 8.96614519 8.4655"></polygon>
                    </g>
                </g>
            </g>
        </g>
    </g>
</svg>