<?xml version="1.0" encoding="UTF-8"?>
<svg width="43px" height="42px" viewBox="0 0 43 42" version="1.1" xmlns="http://www.w3.org/2000/svg" xmlns:xlink="http://www.w3.org/1999/xlink">
    <!-- Generator: Sketch 52.6 (67491) - http://www.bohemiancoding.com/sketch -->
    <title>Group 24</title>
    <desc>Created with Sketch.</desc>
    <g id="Desktop" stroke="none" stroke-width="1" fill="none" fill-rule="evenodd">
        <g id="Internetinės-svetainės-2" transform="translate(-264.000000, -1027.000000)">
            <g id="Group-9" transform="translate(135.000000, 1027.000000)">
                <g id="computer" transform="translate(129.000000, 0.000000)">
                    <g id="Group-24">
                        <path d="M6.93416959,24.9870082 L6.93416959,11.0129918 C6.93416959,6.31138187 10.5453346,2.5 15,2.5 L10.0888026,2.5 C5.62143782,2.5 2,6.31291484 2,11.0164835 L2,24.9835165 C2,29.687 5.62143782,33.5 10.0888026,33.5 L15,33.5 C10.5453346,33.5 6.93416959,29.6886181 6.93416959,24.9870082 Z" id="Path" fill="#CEE1F2"></path>
                        <path d="M32.921875,34.7231405 L10.0763613,34.7231405 C4.52020703,34.7231405 0,30.1638388 0,24.5596302 L0,10.6652893 C0,5.06014876 4.52104687,0.5 10.078125,0.5 L32.921875,0.5 C38.4789531,0.5 43,5.06014876 43,10.6652893 L43,24.5578512 C43,30.1629917 38.4789531,34.7231405 32.921875,34.7231405 Z M10.078125,3.88842975 C6.37340625,3.88842975 3.359375,6.92852893 3.359375,10.6652893 L3.359375,24.5596302 C3.359375,28.295374 6.37265039,31.3347107 10.0763613,31.3347107 L32.921875,31.3347107 C36.6265938,31.3347107 39.640625,28.2946116 39.640625,24.5578512 L39.640625,10.6652893 C39.640625,6.92852893 36.6265938,3.88842975 32.921875,3.88842975 L10.078125,3.88842975 Z M31.2421875,39.8057851 C31.2421875,38.8700702 30.4901914,38.1115702 29.5625,38.1115702 L13.4375,38.1115702 C12.5098086,38.1115702 11.7578125,38.8700702 11.7578125,39.8057851 C11.7578125,40.7415 12.5098086,41.5 13.4375,41.5 L29.5625,41.5 C30.4901914,41.5 31.2421875,40.7415 31.2421875,39.8057851 Z" id="Shape" fill="#4A62B5" fill-rule="nonzero"></path>
                        <path d="M15.7142735,23.0909091 C14.7674802,23.0909091 14,22.3277841 14,21.3863636 L14,16.6136364 C14,13.7939773 16.3070692,11.5 19.1428204,11.5 L24.0284998,11.5 C24.975293,11.5 25.7427733,12.263125 25.7427733,13.2045455 C25.7427733,14.1459659 24.975293,14.9090909 24.0284998,14.9090909 L19.1428204,14.9090909 C18.19757,14.9090909 17.4285469,15.67375 17.4285469,16.6136364 L17.4285469,21.3863636 C17.4285469,22.3277841 16.6610667,23.0909091 15.7142735,23.0909091 Z M28.4978679,26.0008239 C29.1673774,25.3351136 29.1673774,24.2557955 28.4978679,23.5901705 L22.8407654,17.9651705 C22.1712559,17.2994602 21.085778,17.2994602 20.4163542,17.9651705 C19.7469304,18.6308807 19.7468447,19.7101136 20.4163542,20.3757386 L26.0734566,26.0007386 C26.4081685,26.3336364 26.8469368,26.5 27.2856194,26.5 C27.724302,26.5 28.1630703,26.3336364 28.4978679,26.0008239 Z" id="Shape" fill="#39B54A" fill-rule="nonzero"></path>
                    </g>
                </g>
            </g>
        </g>
    </g>
</svg>