<?xml version="1.0" encoding="UTF-8"?>
<svg width="43px" height="44px" viewBox="0 0 43 44" version="1.1" xmlns="http://www.w3.org/2000/svg" xmlns:xlink="http://www.w3.org/1999/xlink">
    <!-- Generator: Sketch 52.6 (67491) - http://www.bohemiancoding.com/sketch -->
    <title>compass</title>
    <desc>Created with Sketch.</desc>
    <g id="Desktop" stroke="none" stroke-width="1" fill="none" fill-rule="evenodd">
        <g id="Internetinės-svetainės-2" transform="translate(-699.000000, -689.000000)">
            <g id="Group-7" transform="translate(570.000000, 689.000000)">
                <g id="compass" transform="translate(129.000000, 0.000000)">
                    <path d="M7.24590164,8.5 C7.24590164,6.62447154 8.35707104,4.99113821 10,4.13552846 C9.22395628,3.73138211 8.32979235,3.5 7.37704918,3.5 C4.40734426,3.5 2,5.73853659 2,8.5 C2,11.2614634 4.40734426,13.5 7.37704918,13.5 C8.32979235,13.5 9.22395628,13.2686179 10,12.8644715 C8.35707104,12.0088618 7.24590164,10.3755285 7.24590164,8.5 Z" id="Path" fill="#CEE1F2"></path>
                    <path d="M13.2695458,19.4804629 L13.2695458,34.4772205 C13.2695458,36.3751838 12.7129816,38.2129303 11.659986,39.7920889 C11.6557868,39.7983878 11.6515876,39.8046026 11.6473044,39.8108175 L9.61530341,42.7709315 C9.30204184,43.2273027 8.78402647,43.5 8.23048573,43.5 C7.67694498,43.5 7.15892961,43.2273027 6.84566804,42.7709315 L4.81366708,39.8108175 C4.80938388,39.8046026 4.80518467,39.7983878 4.80098545,39.7920889 C3.74798987,38.2129303 3.19142569,36.3750998 3.19142569,34.4771365 L3.19142569,19.7324161 C3.19142569,18.8047244 3.94342141,18.0527282 4.87111237,18.0527282 C5.79880332,18.0527282 6.55079905,18.8047244 6.55079905,19.7324161 L6.55079905,34.4771365 C6.55079905,35.7059961 6.91008403,36.896055 7.59010518,37.9194049 L8.23048573,38.8523875 L8.87086627,37.9194889 C9.55088743,36.896139 9.91017241,35.7060801 9.91017241,34.4772205 L9.91017241,19.4804629 C9.91017241,18.5527713 10.6621681,17.800775 11.5898591,17.800775 C12.51755,17.800775 13.2695458,18.5527713 13.2695458,19.4804629 Z M42.270932,7.34564156 L39.3108202,5.31363912 C39.3046053,5.30935591 39.2983905,5.30515669 39.2920917,5.30095747 C37.7129342,4.24796112 35.875189,3.69139653 33.9772271,3.69139653 L19.2324335,3.69139653 C18.3047425,3.69139653 17.5527468,4.44339281 17.5527468,5.37108444 C17.5527468,6.29877607 18.3047425,7.05077235 19.2324335,7.05077235 L33.9772271,7.05077235 C35.2060858,7.05077235 36.3961438,7.4100576 37.419493,8.09007925 L38.3523909,8.73046026 L37.419493,9.37084128 C36.3961438,10.0508629 35.2060019,10.4101482 33.9771431,10.4101482 L18.8964961,10.4101482 C17.9688052,10.4101482 17.2168095,11.1621444 17.2168095,12.0898361 C17.2168095,13.0175277 17.9688052,13.769524 18.8964961,13.769524 L33.9771431,13.769524 C35.875105,13.769524 37.7129342,13.2129594 39.2920077,12.1599631 C39.2983065,12.1557638 39.3045213,12.1515646 39.3107362,12.1472814 L42.270848,10.115279 C42.7273029,9.80201716 43,9.28400141 43,8.73046026 C43,8.17691911 42.7273029,7.65890336 42.270932,7.34564156 Z M14.7812638,8.43651488 C14.7812638,12.2106896 11.7107125,15.2812431 7.93654056,15.2812431 C4.16236857,15.2812431 1.09181734,12.2106896 1.09181734,8.43651488 C1.09181734,7.15726457 1.44539138,5.95947912 2.05872898,4.93411363 L0.492001225,3.36738473 C-0.164000408,2.71138262 -0.164000408,1.64788822 0.492001225,0.991970091 C1.14800286,0.336051962 2.21149648,0.335967978 2.86741413,0.991970091 L4.43414188,2.55869899 C5.45950661,1.94536095 6.65737517,1.59178664 7.93654056,1.59178664 C11.7107125,1.59178664 14.7812638,4.66234013 14.7812638,8.43651488 Z M11.4218904,8.43651488 C11.4218904,6.51469996 9.85835407,4.95116246 7.93654056,4.95116246 C6.01472704,4.95116246 4.4511907,6.51469996 4.4511907,8.43651488 C4.4511907,10.3583298 6.01472704,11.9218673 7.93654056,11.9218673 C9.85835407,11.9218673 11.4218904,10.3583298 11.4218904,8.43651488 Z" id="Shape" fill="#4A62B5" fill-rule="nonzero"></path>
                    <path d="M16.6766467,42.5 C15.7506347,42.5 15,41.7493653 15,40.8233533 C15,39.8973413 15.7506347,39.1467066 16.6766467,39.1467066 C29.3423713,39.1467066 39.6467066,28.8423713 39.6467066,16.1766467 C39.6467066,15.2506347 40.3973413,14.5 41.3233533,14.5 C42.2493653,14.5 43,15.2506347 43,16.1766467 C43,23.2079162 40.2618683,29.8182635 35.290024,34.790024 C30.3182635,39.7618683 23.7079162,42.5 16.6766467,42.5 Z" id="Path" fill="#39B54A"></path>
                </g>
            </g>
        </g>
    </g>
</svg>