<?xml version="1.0" encoding="UTF-8"?>
<svg width="17px" height="17px" viewBox="0 0 17 17" version="1.1" xmlns="http://www.w3.org/2000/svg" xmlns:xlink="http://www.w3.org/1999/xlink">
    <!-- Generator: Sketch 52.6 (67491) - http://www.bohemiancoding.com/sketch -->
    <title>wall-clock</title>
    <desc>Created with Sketch.</desc>
    <g id="Desktop" stroke="none" stroke-width="1" fill="none" fill-rule="evenodd">
        <g id="Pagrindinis-puslapis" transform="translate(-949.000000, -2773.000000)">
            <g id="Footeris" transform="translate(80.000000, 2619.000000)">
                <g id="Kontaktai" transform="translate(869.000000, 38.000000)">
                    <g id="wall-clock" transform="translate(0.000000, 116.000000)">
                        <circle id="Oval" fill="#4A62B5" cx="8.5" cy="8.5" r="8.5"></circle>
                        <g id="Group">
                            <path d="M8.49263747,16.9853163 C3.80332603,16.9853163 0,13.1819903 0,8.49263747 C0,3.80328467 3.80332603,0 8.49263747,0 C13.1819489,0 16.9852749,3.80332603 16.9852749,8.49263747 C16.9852749,13.1819489 13.1819903,16.9853163 8.49263747,16.9853163 Z M8.49263747,1.29659124 C4.51641606,1.29659124 1.29654988,4.51645742 1.29654988,8.49267883 C1.29654988,12.4689002 4.51641606,15.6887664 8.49263747,15.6887664 C12.4688589,15.6887664 15.6887251,12.4689002 15.6887251,8.49267883 C15.6887251,4.51645742 12.4688589,1.29659124 8.49263747,1.29659124 Z" id="Shape" fill="#4A62B5" fill-rule="nonzero"></path>
                            <path d="M10.1782019,10.8265182 C10.0053066,10.8265182 9.8540438,10.7617032 9.72441363,10.6320316 L8.03884915,8.94646715 C7.90917762,8.83842822 7.84436253,8.66553285 7.84436253,8.49267883 L7.84436253,5.14314112 C7.84436253,4.77575912 8.12529684,4.49486618 8.49263747,4.49486618 C8.8599781,4.49486618 9.14091241,4.77580049 9.14091241,5.14314112 L9.14091241,8.23333577 L10.6319903,9.72441363 C10.891292,9.98371533 10.891292,10.3943212 10.6319903,10.6320316 C10.5023601,10.7617032 10.3510973,10.8265182 10.1782019,10.8265182 Z" id="Path" fill="#FFFFFF"></path>
                        </g>
                    </g>
                </g>
            </g>
        </g>
    </g>
</svg>