<?xml version="1.0" encoding="UTF-8"?>
<svg width="17px" height="15px" viewBox="0 0 17 15" version="1.1" xmlns="http://www.w3.org/2000/svg" xmlns:xlink="http://www.w3.org/1999/xlink">
    <!-- Generator: Sketch 52.6 (67491) - http://www.bohemiancoding.com/sketch -->
    <title>mail</title>
    <desc>Created with Sketch.</desc>
    <g id="Desktop" stroke="none" stroke-width="1" fill="none" fill-rule="evenodd">
        <g id="Pagrindinis-puslapis" transform="translate(-949.000000, -2740.000000)" fill="#4A62B5">
            <g id="Footeris" transform="translate(80.000000, 2619.000000)">
                <g id="Kontaktai" transform="translate(869.000000, 38.000000)">
                    <g id="mail" transform="translate(0.000000, 83.000000)">
                        <g id="Group-13">
                            <path d="M7.6567335,7.26361916 C8.10593579,7.57878183 8.89413141,7.57881719 9.3434345,7.2635838 C9.3435017,7.26354844 9.3436025,7.26347772 9.34366971,7.26344236 L17,1.89188656 C16.7488714,1.12754724 16.058587,0.576923077 15.2480136,0.576923077 L1.75201997,0.576923077 C0.941412952,0.576923077 0.251162175,1.12754724 0,1.89188656 L7.6564983,7.26347772 C7.6565991,7.26354844 7.6566663,7.26354844 7.6567335,7.26361916 Z" id="Path"></path>
                            <path d="M9.88617489,8.78897367 C9.88607528,8.78904018 9.88600888,8.7891067 9.88594247,8.78913996 C9.49739646,9.04859321 8.99861522,9.17833646 8.5,9.17833646 C8.00128517,9.17833646 7.50270315,9.04862647 7.11412394,8.7891067 C7.11405753,8.78907344 7.11402433,8.78904018 7.11395792,8.78900692 L0,4.03846154 L0,12.5884122 C0,13.6000504 0.821684154,14.4230769 1.8316979,14.4230769 L15.1683685,14.4230769 C16.178349,14.4230769 17,13.6000504 17,12.5884122 L17,4.03846154 L9.88617489,8.78897367 Z" id="Path"></path>
                        </g>
                    </g>
                </g>
            </g>
        </g>
    </g>
</svg>