<?xml version="1.0" encoding="UTF-8"?>
<svg width="17px" height="17px" viewBox="0 0 17 17" version="1.1" xmlns="http://www.w3.org/2000/svg" xmlns:xlink="http://www.w3.org/1999/xlink">
    <!-- Generator: Sketch 52.6 (67491) - http://www.bohemiancoding.com/sketch -->
    <title>Path</title>
    <desc>Created with Sketch.</desc>
    <g id="Desktop" stroke="none" stroke-width="1" fill="none" fill-rule="evenodd">
        <g id="Pagrindinis-puslapis" transform="translate(-949.000000, -2704.000000)" fill="#4A62B5">
            <g id="Footeris" transform="translate(80.000000, 2619.000000)">
                <g id="Kontaktai" transform="translate(869.000000, 38.000000)">
                    <g id="phone" transform="translate(0.000000, 47.000000)">
                        <path d="M14.7673643,11.5153367 C13.7783588,11.5153367 12.8096452,11.3609121 11.891523,11.0579567 C11.4434386,10.9035321 10.934597,11.022515 10.6401064,11.3229388 L8.81992169,12.6975707 C6.73139259,11.5828579 5.39473396,10.2470299 4.29521041,8.1736901 L5.6326997,6.3965417 C5.96939591,6.05984549 6.09007966,5.56702382 5.94578129,5.10545098 C5.64029435,4.18143507 5.48503911,3.21185126 5.48503911,2.22454659 C5.48503911,1.52666934 4.91714115,0.958771378 4.2192639,0.958771378 L1.26577521,0.958771378 C0.567897961,0.958771378 0,1.52666934 0,2.22454659 C0,10.3668434 6.62506747,16.9919109 14.7673643,16.9919109 C15.4652416,16.9919109 16.0331395,16.4240129 16.0331395,15.7261357 L16.0331395,12.7811119 C16.0331395,12.0832346 15.4652416,11.5153367 14.7673643,11.5153367 Z" id="Path"></path>
                    </g>
                </g>
            </g>
        </g>
    </g>
</svg>