<?xml version="1.0" encoding="UTF-8"?>
<svg width="7px" height="12px" viewBox="0 0 7 12" version="1.1" xmlns="http://www.w3.org/2000/svg" xmlns:xlink="http://www.w3.org/1999/xlink">
    <!-- Generator: Sketch 52.6 (67491) - http://www.bohemiancoding.com/sketch -->
    <title>Path Copy 12</title>
    <desc>Created with Sketch.</desc>
    <g id="Desktop" stroke="none" stroke-width="1" fill="none" fill-rule="evenodd">
        <g id="Pagrindinis-puslapis" transform="translate(-627.000000, -2706.000000)" fill="#4A62B5">
            <g id="Footeris" transform="translate(80.000000, 2619.000000)">
                <g id="Paslaugos" transform="translate(546.000000, 38.000000)">
                    <path d="M9.82417743,52.5107593 L9.46385743,52.1694961 C9.35045813,52.0629196 9.19958699,52.0042059 9.03834178,52.0042059 C8.87718599,52.0042059 8.72613598,52.0629196 8.61273669,52.1694961 L4.50245937,56.0356886 L0.387442174,52.1652061 C0.274221742,52.0586297 0.123171733,52 -0.0379840487,52 C-0.19913983,52 -0.350279271,52.0586297 -0.463589135,52.1652061 L-0.823998569,52.5043664 C-1.05866714,52.7249216 -1.05866714,53.084186 -0.823998569,53.3047411 L4.07542338,57.9295863 C4.18864381,58.0360786 4.33951496,58.1111111 4.50210164,58.1111111 C4.66522492,58.1111111 4.81609607,58.0359945 4.9293165,57.9295863 L9.82417743,53.3172746 C9.93757673,53.2107823 9.99982114,53.0645867 10,52.9130076 C10,52.7613443 9.93757673,52.6171675 9.82417743,52.5107593 Z" id="Path-Copy-12" transform="translate(4.500000, 55.055556) rotate(-90.000000) translate(-4.500000, -55.055556) "></path>
                </g>
            </g>
        </g>
    </g>
</svg>