<?xml version="1.0" encoding="UTF-8"?>
<svg width="26px" height="26px" viewBox="0 0 26 26" version="1.1" xmlns="http://www.w3.org/2000/svg" xmlns:xlink="http://www.w3.org/1999/xlink">
    <!-- Generator: Sketch 52.6 (67491) - http://www.bohemiancoding.com/sketch -->
    <title>Path</title>
    <desc>Created with Sketch.</desc>
    <g id="Desktop" stroke="none" stroke-width="1" fill="none" fill-rule="evenodd">
        <g id="Pagrindinis-puslapis" transform="translate(-82.000000, -2765.000000)" fill="#4A62B5">
            <g id="Footeris" transform="translate(80.000000, 2619.000000)">
                <g id="Socialiniai-tinklai" transform="translate(2.000000, 146.000000)">
                    <path d="M22.1914062,0 L3.80859375,0 C1.70870974,0 0,1.70870974 0,3.80859375 L0,22.1914062 C0,24.2912903 1.70870974,26 3.80859375,26 L11.4765625,26 L11.4765625,16.8085938 L8.4296875,16.8085938 L8.4296875,12.2382812 L11.4765625,12.2382812 L11.4765625,9.140625 C11.4765625,6.62040712 13.5266571,4.5703125 16.046875,4.5703125 L20.6679688,4.5703125 L20.6679688,9.140625 L16.046875,9.140625 L16.046875,12.2382812 L20.6679688,12.2382812 L19.90625,16.8085938 L16.046875,16.8085938 L16.046875,26 L22.1914062,26 C24.2912903,26 26,24.2912903 26,22.1914062 L26,3.80859375 C26,1.70870974 24.2912903,0 22.1914062,0 Z" id="Path"></path>
                </g>
            </g>
        </g>
    </g>
</svg>