<?xml version="1.0" encoding="UTF-8"?>
<svg width="223px" height="251px" viewBox="0 0 223 251" version="1.1" xmlns="http://www.w3.org/2000/svg" xmlns:xlink="http://www.w3.org/1999/xlink">
    <!-- Generator: Sketch 52.6 (67491) - http://www.bohemiancoding.com/sketch -->
    <title>Group 5</title>
    <desc>Created with Sketch.</desc>
    <g id="Desktop" stroke="none" stroke-width="1" fill="none" fill-rule="evenodd">
        <g id="Pagrindinis-puslapis" transform="translate(-1158.000000, -2619.000000)">
            <g id="Footeris" transform="translate(80.000000, 2619.000000)">
                <g id="Logotipo-simbolis" transform="translate(1078.000000, 0.500000)">
                    <g id="Group-5">
                        <path d="M152,109.421068 L91.5757411,166 L17.9400765,97.0608947 C6.45459117,86.338904 -1.38365696e-15,71.7826726 -3.25608313e-15,56.602886 C-5.12850931e-15,41.4230994 6.45459117,26.866868 17.9400765,16.1448773 L35.0432142,0 L152,109.421068 Z" id="Path" fill="#39B54A"></path>
                        <path d="M222.999484,202.010716 C223.049848,211.944201 218.861101,221.485067 211.364094,228.513073 L57.0117389,373 L34.1602528,351.6018 C12.6132491,331.420599 12.6132491,298.705204 34.1602528,278.524003 L177.820628,144 L211.25927,175.45928 C218.822629,182.473692 223.053795,192.042813 222.999484,202.010716 Z" id="Path" fill="#4A62B5"></path>
                    </g>
                </g>
            </g>
        </g>
    </g>
</svg>