<?xml version="1.0" encoding="UTF-8"?>
<svg width="65px" height="120px" viewBox="0 0 65 120" version="1.1" xmlns="http://www.w3.org/2000/svg" xmlns:xlink="http://www.w3.org/1999/xlink">
    <!-- Generator: Sketch 52.6 (67491) - http://www.bohemiancoding.com/sketch -->
    <title>Group 6</title>
    <desc>Created with Sketch.</desc>
    <g id="Desktop" stroke="none" stroke-width="1" fill="none" fill-rule="evenodd">
        <g id="Pagrindinis-puslapis-Copy" transform="translate(-1057.000000, 0.000000)">
            <g id="Group-5" transform="translate(1057.000000, 0.000000)">
                <g transform="translate(12.000000, 49.500000) rotate(-360.000000) translate(-12.000000, -49.500000) translate(-41.000000, -33.000000)" id="Group-6">
                    <g>
                        <path d="M69.6170783,49.0178022 L41.9423391,74.3636973 L8.21668232,43.480765 C2.95624855,38.6775911 3.41060513e-13,32.1567767 3.41060513e-13,25.3566258 C3.41060513e-13,18.5564748 2.95624855,12.0356605 8.21668232,7.23248657 L16.0500407,1.8189894e-12 L69.6170783,49.0178022 Z" id="Path" fill="#39B54A"></path>
                        <path d="M105.216481,87.7585353 C105.239805,92.2196423 103.300059,96.5044248 99.8283095,99.6606874 L28.3500836,164.549458 L17.7679082,154.939572 C7.78981875,145.876238 7.78981875,131.183824 17.7679082,122.120489 L84.2948411,61.7060467 L99.7797675,75.8343421 C103.282244,78.9844994 105.241632,83.2819714 105.216481,87.7585353 Z" id="Path" fill="#4A62B5"></path>
                    </g>
                </g>
            </g>
        </g>
    </g>
</svg>