<?xml version="1.0" encoding="UTF-8"?>
<svg width="26px" height="26px" viewBox="0 0 26 26" version="1.1" xmlns="http://www.w3.org/2000/svg" xmlns:xlink="http://www.w3.org/1999/xlink">
    <!-- Generator: Sketch 52.6 (67491) - http://www.bohemiancoding.com/sketch -->
    <title>Group 4</title>
    <desc>Created with Sketch.</desc>
    <g id="Desktop" stroke="none" stroke-width="1" fill="none" fill-rule="evenodd">
        <g id="Pagrindinis-puslapis" transform="translate(-152.000000, -2765.000000)" fill="#4A62B5">
            <g id="Footeris" transform="translate(80.000000, 2619.000000)">
                <g id="Socialiniai-tinklai" transform="translate(2.000000, 146.000000)">
                    <g id="instagram" transform="translate(70.000000, 0.000000)">
                        <g id="Group-4">
                            <path d="M15,13 C15,14.1045139 14.1045139,15 13,15 C11.8954861,15 11,14.1045139 11,13 C11,11.8954861 11.8954861,11 13,11 C14.1045139,11 15,11.8954861 15,13 Z" id="Path"></path>
                            <path d="M16.9117647,6 L9.08823529,6 C7.3852826,6 6,7.3852826 6,9.08823529 L6,16.9117647 C6,18.6147174 7.3852826,20 9.08823529,20 L16.9117647,20 C18.6147174,20 20,18.6147174 20,16.9117647 L20,9.08823529 C20,7.3852826 18.6147174,6 16.9117647,6 Z M13,16.8602941 C10.8714097,16.8602941 9.13970588,15.1285903 9.13970588,13 C9.13970588,10.8714097 10.8714097,9.13970588 13,9.13970588 C15.1285903,9.13970588 16.8602941,10.8714097 16.8602941,13 C16.8602941,15.1285903 15.1285903,16.8602941 13,16.8602941 Z M17.4264706,9.34558824 C17.0000287,9.34558824 16.6544118,8.99997126 16.6544118,8.57352941 C16.6544118,8.14708756 17.0000287,7.80147059 17.4264706,7.80147059 C17.8529124,7.80147059 18.1985294,8.14708756 18.1985294,8.57352941 C18.1985294,8.99997126 17.8529124,9.34558824 17.4264706,9.34558824 Z" id="Shape" fill-rule="nonzero"></path>
                            <path d="M19.1445312,0 L6.85546875,0 C3.07543945,0 0,3.07543945 0,6.85546875 L0,19.1445312 C0,22.9245605 3.07543945,26 6.85546875,26 L19.1445312,26 C22.9245605,26 26,22.9245605 26,19.1445312 L26,6.85546875 C26,3.07543945 22.9245605,0 19.1445312,0 Z M21.4296875,16.859375 C21.4296875,19.3793945 19.3793945,21.4296875 16.859375,21.4296875 L9.140625,21.4296875 C6.62060547,21.4296875 4.5703125,19.3793945 4.5703125,16.859375 L4.5703125,9.140625 C4.5703125,6.62060547 6.62060547,4.5703125 9.140625,4.5703125 L16.859375,4.5703125 C19.3793945,4.5703125 21.4296875,6.62060547 21.4296875,9.140625 L21.4296875,16.859375 Z" id="Shape" fill-rule="nonzero"></path>
                        </g>
                    </g>
                </g>
            </g>
        </g>
    </g>
</svg>