<?xml version="1.0" encoding="UTF-8"?>
<svg width="26px" height="26px" viewBox="0 0 26 26" version="1.1" xmlns="http://www.w3.org/2000/svg" xmlns:xlink="http://www.w3.org/1999/xlink">
    <!-- Generator: Sketch 52.6 (67491) - http://www.bohemiancoding.com/sketch -->
    <title>Shape</title>
    <desc>Created with Sketch.</desc>
    <g id="Desktop" stroke="none" stroke-width="1" fill="none" fill-rule="evenodd">
        <g id="Pagrindinis-puslapis" transform="translate(-117.000000, -2765.000000)" fill="#4A62B5" fill-rule="nonzero">
            <g id="Footeris" transform="translate(80.000000, 2619.000000)">
                <g id="Socialiniai-tinklai" transform="translate(2.000000, 146.000000)">
                    <path d="M57.1914062,0 L38.8085938,0 C36.7087097,0 35,1.70870974 35,3.80859375 L35,22.1914062 C35,24.2912903 36.7087097,26 38.8085938,26 L57.1914062,26 C59.2912903,26 61,24.2912903 61,22.1914062 L61,3.80859375 C61,1.70870974 59.2912903,0 57.1914062,0 Z M44.1914062,20.6171875 L41.1445312,20.6171875 L41.1445312,9.953125 L44.1914062,9.953125 L44.1914062,20.6171875 Z M44.1914062,8.4296875 L41.1445312,8.4296875 L41.1445312,5.3828125 L44.1914062,5.3828125 L44.1914062,8.4296875 Z M54.8554688,20.6171875 L51.8085938,20.6171875 L51.8085938,14.5234375 C51.8085938,13.6835633 51.1250305,13 50.2851562,13 C49.445282,13 48.7617188,13.6835633 48.7617188,14.5234375 L48.7617188,20.6171875 L45.7148438,20.6171875 L45.7148438,9.953125 L48.7617188,9.953125 L48.7617188,10.5273895 C49.5599365,10.2792358 50.0784607,9.953125 51.046875,9.953125 C53.1132355,9.95530702 54.8554688,11.809021 54.8554688,13.9997559 L54.8554688,20.6171875 Z" id="Shape"></path>
                </g>
            </g>
        </g>
    </g>
</svg>