<?xml version="1.0" encoding="UTF-8"?>
<svg width="119px" height="31px" viewBox="0 0 119 31" version="1.1" xmlns="http://www.w3.org/2000/svg" xmlns:xlink="http://www.w3.org/1999/xlink">
    <!-- Generator: Sketch 52.6 (67491) - http://www.bohemiancoding.com/sketch -->
    <title>Logotipas</title>
    <desc>Created with Sketch.</desc>
    <g id="Desktop" stroke="none" stroke-width="1" fill="none" fill-rule="evenodd">
        <g id="Pagrindinis-puslapis" transform="translate(-82.000000, -20.000000)">
            <g id="Navigacijos-juosta">
                <g id="Logotipas" transform="translate(82.000000, 20.071429)">
                    <path d="M114.213567,4.07771266 L106.436833,11.3684009 L105.299605,10.2926733 C104.535907,9.57827073 104.106726,8.60839402 104.106726,7.59697003 C104.106726,6.58554605 104.535907,5.61566933 105.299605,4.90126677 L110.195815,0.307877783 L114.213567,4.07771266 Z" id="Path" fill="#39B54A" transform="translate(109.160147, 5.838139) scale(-1, 1) rotate(-180.000000) translate(-109.160147, -5.838139) "></path>
                    <path d="M119.010514,21.4145057 C119.014155,22.0835322 118.7305,22.7257931 118.223456,23.1965869 L115.981745,25.3080732 L106.35082,16.2790814 C104.906319,14.9245581 104.906319,12.7287638 106.35082,11.3742405 L107.882773,9.93803457 L118.230483,19.6357186 C118.733079,20.1074248 119.013891,20.7477894 119.010514,21.4145057 Z" id="Path" fill="#4A62B5" transform="translate(112.138997, 17.623054) scale(-1, 1) rotate(-180.000000) translate(-112.138997, -17.623054) "></path>
                    <path d="M6.46236817,12.5687919 L7.4629674,12.5687919 C8.25621733,12.6316868 9.02155651,12.2611175 9.46416587,11.5998322 L15.5626798,1.79554171 C15.8256582,1.32674807 16.2221469,0.946779749 16.7017018,0.703978907 C17.2024823,0.495936398 17.7416121,0.396197378 18.2836769,0.411313519 L23.7217162,0.411313519 L15.6694631,12.5252876 C15.2052048,13.2645697 14.5756659,13.8859855 13.8304171,14.340604 C14.2988195,14.533032 14.732908,14.8001634 15.1157718,15.1315916 C15.5423621,15.5168569 15.9007231,15.9714941 16.1756951,16.4762704 L24.2556328,30.2473634 L18.9046021,30.2473634 C18.6332358,30.262325 18.3612513,30.262325 18.0898849,30.2473634 C17.7565604,30.2599114 17.4248719,30.1949276 17.1209252,30.0575264 C16.9388454,29.9556604 16.7767144,29.8216678 16.6423778,29.6620326 C16.4954398,29.4929501 16.3631328,29.3116894 16.246884,29.1202061 L10.1720997,18.7068552 C9.99001332,18.3491724 9.69924561,18.0584047 9.3415628,17.8763183 C8.90401327,17.7036571 8.43525329,17.6241835 7.96524449,17.642977 L6.44654842,17.642977 L6.41095398,30.2394535 L0.15424257,30.2394535 C0.185882071,20.2888303 0.21620326,10.3395254 0.245206136,0.39153883 L6.49400767,0.39153883 C6.48346117,4.45194151 6.47291467,8.51102589 6.46236817,12.5687919 Z" id="Path" fill="#000000"></path>
                    <path d="M39.1973873,23.9669223 L39.1973873,16.057047 C39.1973873,11.8753595 41.2882311,9.78451582 45.4699185,9.78451582 L50.5045542,9.78451582 C54.683605,9.78451582 56.7744487,11.8753595 56.7770853,16.057047 L56.7770853,22.021093 L44.5405081,22.021093 L44.5405081,24.3426414 C44.5405081,25.1679051 44.95314,25.5818552 45.7784036,25.5844919 L56.0098274,25.5844919 L56.0098274,28.4874161 L56.0098274,30.2315436 L45.4896932,30.2315436 C41.292186,30.2394535 39.1947507,28.1512464 39.1973873,23.9669223 Z M44.5405081,17.8486337 L51.4339645,17.8486337 L51.4339645,15.6813279 C51.4339645,14.8560642 51.0200144,14.4434324 50.1921141,14.4434324 L45.7784036,14.4434324 C44.95314,14.4434324 44.5405081,14.8560642 44.5405081,15.6813279 L44.5405081,17.8486337 Z" id="Shape" fill="#000000" fill-rule="nonzero"></path>
                    <path d="M59.1737776,23.9669223 L59.1737776,3.51989453 L64.5208533,3.51989453 L64.5208533,9.7924257 L71.1809684,9.7924257 L71.1809684,14.4394775 L64.5168984,14.4394775 L64.5168984,24.3505513 C64.5168984,25.175815 64.9295302,25.5897651 65.7547939,25.5924017 L71.5645973,25.5924017 L71.5645973,28.495326 L71.5408677,30.2394535 L65.4463087,30.2394535 C61.2646213,30.2420901 59.1737776,28.1512464 59.1737776,23.9669223 Z" id="Path" fill="#000000"></path>
                    <path d="M73.0160594,6.46632311 L73.0160594,1.27744487 L78.5134228,1.27744487 L78.5134228,6.46632311 L73.0160594,6.46632311 Z M73.0912033,30.2434084 L73.0912033,9.79638063 L78.438279,9.79638063 L78.438279,30.2434084 L73.0912033,30.2434084 Z" id="Shape" fill="#000000" fill-rule="nonzero"></path>
                    <path d="M81.1197267,30.2552733 C81.1197267,28.7009827 81.0959971,27.1506472 81.0880872,25.5963567 L89.9946069,25.5963567 C90.8726031,25.5963567 91.3116012,25.1059444 91.3116012,24.1251198 C91.3116012,23.1442953 90.9240173,22.5761026 90.1488495,22.4205417 L85.9645254,21.7126079 C82.7135666,21.1668265 81.0880872,19.2816395 81.0880872,16.057047 C81.0880872,11.8753595 83.178931,9.78451582 87.3606184,9.78451582 L95.6659875,9.78451582 L95.6857622,11.5207335 L95.6857622,14.4276127 L87.7086529,14.4276127 C86.8306568,14.4276127 86.3916587,14.9180249 86.3916587,15.8988495 C86.3916587,16.879674 86.7792426,17.4478667 87.5544104,17.6034276 L91.7347795,18.2994966 C94.9883749,18.8400048 96.6151726,20.7238734 96.6151726,23.9511026 C96.6151726,28.1354267 94.5243289,30.2275887 90.3426414,30.2275887 L83.4096357,30.2275887 L81.1197267,30.2552733 Z" id="Path" fill="#000000"></path>
                    <path d="M37.8724832,10.9551774 L37.8724832,14.4394775 L31.1886385,14.4394775 L31.1886385,30.2592282 L25.8692474,30.2592282 L25.8692474,10.9551774 C25.8692474,10.3173759 26.3862876,9.80033557 27.0240892,9.80033557 L36.7215964,9.80033557 C37.027517,9.80033376 37.3208505,9.92213032 37.5367977,10.1388196 C37.7527449,10.3555089 37.8735345,10.6492585 37.8724832,10.9551774 Z" id="Path" fill="#000000"></path>
                </g>
            </g>
        </g>
    </g>
</svg>