<?xml version="1.0" encoding="UTF-8"?>
<svg width="12px" height="21px" viewBox="0 0 12 21" version="1.1" xmlns="http://www.w3.org/2000/svg" xmlns:xlink="http://www.w3.org/1999/xlink">
    <!-- Generator: Sketch 52.6 (67491) - http://www.bohemiancoding.com/sketch -->
    <title>Path Copy 12</title>
    <desc>Created with Sketch.</desc>
    <g id="Desktop" stroke="none" stroke-width="1" fill="none" fill-rule="evenodd">
        <g id="Pagrindinis-puslapis" transform="translate(-1326.000000, -1152.000000)" fill="#FFFFFF">
            <g id="Portfolio" transform="translate(82.000000, 1133.000000)">
                <g id="Next-buttons" transform="translate(1195.000000, 0.000000)">
                    <g id="Group-2" transform="translate(20.000000, 19.000000)">
                        <path d="M30.2647803,0.335661266 C30.4687523,0.119171701 30.7451224,0 31.0358431,0 C31.3264025,0.000341466191 31.6066424,0.119171701 31.8107757,0.335661266 L40.6520381,9.68039578 C40.8560102,9.89654387 41,10.1845706 41,10.4924024 L41,10.4959878 C41,10.8063805 40.8561715,11.0944073 40.6520381,11.3105554 L31.7867506,20.6639973 C31.3639721,21.1120009 30.6753043,21.1120009 30.2525258,20.6639973 L29.602395,19.9759429 C29.3981005,19.7596241 29.2857143,19.4710851 29.2857143,19.1634241 C29.2857143,18.8557631 29.3981005,18.5673949 29.602395,18.3512468 L37.0216577,10.4953048 L29.6106184,2.64841178 C29.4063239,2.43192221 29.2937764,2.14355401 29.2937764,1.83589297 C29.2937764,1.5280612 29.4063239,1.24003447 29.6106184,1.02354491 L30.2647803,0.335661266 Z" id="Path-Copy-12"></path>
                    </g>
                </g>
            </g>
        </g>
    </g>
</svg>