<?xml version="1.0" encoding="UTF-8"?>
<svg width="46px" height="46px" viewBox="0 0 46 46" version="1.1" xmlns="http://www.w3.org/2000/svg" xmlns:xlink="http://www.w3.org/1999/xlink">
    <!-- Generator: Sketch 52.6 (67491) - http://www.bohemiancoding.com/sketch -->
    <title>Internetiniu svetainiu dizainas</title>
    <desc>Created with Sketch.</desc>
    <g id="Desktop" stroke="none" stroke-width="1" fill="none" fill-rule="evenodd">
        <g id="Pagrindinis-puslapis" transform="translate(-1131.000000, -727.000000)">
            <g id="Paslaugos" transform="translate(82.000000, 640.000000)">
                <g id="Internetini킬-svetaini킬-dizainas-(Paslauga)" transform="translate(867.000000, 0.000000)">
                    <g id="Internetini킬-svetaini킬-dizainas-ikona" transform="translate(133.000000, 38.000000)">
                        <g id="Internetiniu-svetainiu-dizainas" transform="translate(49.000000, 48.000000)">
                            <polygon id="Path" fill="#CEE1F2" points="5.63 32.24 29.74 8.31 30.49 7.51 28.73 7.12 4.97 31.44 5.32 32.55"></polygon>
                            <polygon id="Path" fill="#CEE1F2" points="4.49 42.96 5.7 33.68 4.49 32.36 2.89 43.38 4.29 43.8"></polygon>
                            <polygon id="Path" points="30.97 5.54 34.03 8.6 30.97 5.54"></polygon>
                            <polygon id="Path" points="34.9 13.83 35.15 14.08 34.9 13.83 34.35 14.37 33.06 15.66 33.31 15.91 33.06 15.66 12.33 36.39 10.15 34.2 9.6 34.75 11.79 36.93 15.66 40.8 38.77 17.69 34.9 13.83"></polygon>
                            <path d="M40.28,6.16 C39.5543202,5.44550317 38.6851361,4.89331562 37.73,4.54 C38.6851361,4.89331562 39.5543202,5.44550317 40.28,6.16 C41.6123818,7.48177824 42.3581821,9.28322828 42.35,11.16 C42.3499976,11.9349455 42.2250614,12.7048228 41.98,13.44 C42.2187816,12.7239304 42.3436357,11.9748058 42.35,11.22 C42.3744013,9.32247474 41.6273518,7.49635354 40.28,6.16 Z" id="Path"></path>
                            <polygon id="Path" points="30.88 13.47 30.71 13.29 30.88 13.47 32.17 12.19 32.71 11.64 32.67 11.59 32.54 11.46 32.67 11.59 32.67 11.59 28.75 7.67 5.63 30.79 9.6 34.75 10.15 34.2"></polygon>
                            <path d="M40.28,6.16 C39.5543202,5.44550317 38.6851361,4.89331562 37.73,4.54 C36.9414915,4.25263499 36.1092319,4.10377555 35.27,4.1 C33.7174353,4.09483908 32.2063404,4.60088017 30.97,5.54 L34.03,8.6 L40.9,15.47 C41.3665554,14.8666236 41.7313637,14.1910528 41.98,13.47 C42.2219001,12.744374 42.3467949,11.9848781 42.35,11.22 C42.3744013,9.32247474 41.6273518,7.49635354 40.28,6.16 Z" id="Path"></path>
                            <path d="M11.88,34.65 C12.4850796,35.2539599 13.4649204,35.2539599 14.07,34.65 L32.62,16.1 C33.2173358,15.4960891 33.2173358,14.5239109 32.62,13.92 C32.0160891,13.3226642 31.0439109,13.3226642 30.44,13.92 L11.88,32.47 C11.2826642,33.0739109 11.2826642,34.0460891 11.88,34.65 Z" id="Path" fill="#39B54A"></path>
                            <path d="M42.45,3.98 C40.5441612,2.0710828 37.9574407,0.998405115 35.26,0.998405115 C32.5625593,0.998405115 29.9758388,2.0710828 28.07,3.98 L2.35,29.69 C2.11764015,29.9307793 1.96716529,30.2387279 1.92,30.57 L0.02,44.68 C-0.044019779,45.1205784 0.0870399919,45.5671912 0.378984066,45.903311 C0.67092814,46.2394308 1.09479788,46.4317172 1.54,46.43 L1.74,46.43 L10.22,45.27 C10.7901235,45.2304566 11.2914659,44.8784466 11.5222681,44.3556323 C11.7530702,43.8328179 11.6753728,43.2251845 11.3204443,42.7772668 C10.9655158,42.3293491 10.3917299,42.1148146 9.83,42.22 L3.34,43.11 L4.56,34.11 L14.56,44.11 C15.1669365,44.6903231 16.1230635,44.6903231 16.73,44.11 L42.45,18.36 C44.3638451,16.4567836 45.4399301,13.8690806 45.4399301,11.17 C45.4399301,8.47091944 44.3638451,5.88321645 42.45,3.98 Z M15.66,40.8 L11.79,36.93 L9.6,34.75 L5.6,30.75 L28.75,7.67 L32.67,11.59 L34.9,13.83 L38.77,17.69 L15.66,40.8 Z M40.9,15.47 L34.03,8.6 L30.97,5.54 C32.9064246,4.07822064 35.4532923,3.70146506 37.73,4.54 C38.6851361,4.89331562 39.5543202,5.44550317 40.28,6.16 C41.6123818,7.48177824 42.3581821,9.28322828 42.35,11.16 C42.3499976,11.9349455 42.2250614,12.7048228 41.98,13.44 C41.7343592,14.1715726 41.3694369,14.8574914 40.9,15.47 Z" id="Shape" fill="#4A62B5" fill-rule="nonzero"></path>
                            <path d="M34.03,8.6 L40.9,15.47 C41.3665554,14.8666236 41.7313637,14.1910528 41.98,13.47 C41.7313637,14.1910528 41.3665554,14.8666236 40.9,15.47 L34.03,8.6 Z" id="Path" fill="#4A62B5"></path>
                            <path d="M37.73,4.54 C35.4532923,3.70146506 32.9064246,4.07822064 30.97,5.54 C32.2063404,4.60088017 33.7174353,4.09483908 35.27,4.1 C36.1092319,4.10377555 36.9414915,4.25263499 37.73,4.54 Z" id="Path" fill="#4A62B5"></path>
                        </g>
                    </g>
                </g>
            </g>
        </g>
    </g>
</svg>