<?xml version="1.0" encoding="UTF-8"?>
<svg width="52px" height="46px" viewBox="0 0 52 46" version="1.1" xmlns="http://www.w3.org/2000/svg" xmlns:xlink="http://www.w3.org/1999/xlink">
    <!-- Generator: Sketch 52.6 (67491) - http://www.bohemiancoding.com/sketch -->
    <title>Elektronines parduotuves</title>
    <desc>Created with Sketch.</desc>
    <g id="Desktop" stroke="none" stroke-width="1" fill="none" fill-rule="evenodd">
        <g id="Pagrindinis-puslapis" transform="translate(-695.000000, -727.000000)">
            <g id="Paslaugos" transform="translate(82.000000, 640.000000)">
                <g id="Elektroninės-parduotuvės-(Paslauga)" transform="translate(432.000000, 1.000000)">
                    <g id="Elektroninės-parduotuvės-ikona" transform="translate(135.000000, 37.000000)">
                        <g id="Elektronines-parduotuves" transform="translate(45.000000, 49.000000)">
                            <path d="M20.73,37.81 C20.1628259,38.4951983 19.9650255,39.4137487 20.1999064,40.2716613 C20.4347874,41.129574 21.072896,41.8192677 21.91,42.12 L18.77,42.24 L18.19,38.78 L20.73,37.81 Z" id="Path" fill="#CEE1F2"></path>
                            <path d="M39.84,37.83 C39.2777578,38.5185518 39.0830279,39.4364143 39.3172602,40.2939428 C39.5514925,41.1514713 40.1857934,41.8428856 41.02,42.15 L37.88,42.27 L37.3,38.8 L39.84,37.83 Z" id="Path" fill="#CEE1F2"></path>
                            <polygon id="Path" fill="#CEE1F2" points="20.79 29.75 15.76 9.97 12.99 10.18 18.4 30.65"></polygon>
                            <path d="M24.78,24.34 C24.8389488,24.9098386 25.197425,25.4049424 25.7203942,25.6388106 C26.2433633,25.8726787 26.8513739,25.8097811 27.3153942,25.4738106 C27.7794145,25.1378401 28.0289488,24.5798386 27.97,24.01 L27.12,15.72 C27.0323459,14.8939545 26.3306253,14.2702029 25.5,14.28 L25.33,14.28 C24.9073846,14.3300313 24.5204431,14.541416 24.25,14.87 C23.9816563,15.201455 23.8557807,15.6258357 23.9,16.05 L24.78,24.34 Z" id="Path" fill="#39B54A"></path>
                            <path d="M36.18,25.77 C36.6037452,25.8174942 37.0288098,25.6927989 37.3597436,25.4239152 C37.6906774,25.1550315 37.8997453,24.7644941 37.94,24.34 L38.79,16.05 C38.8388005,15.6254241 38.7124084,15.199302 38.44,14.87 C38.1709237,14.5397677 37.7832639,14.3279906 37.36,14.28 L37.2,14.28 C36.3752351,14.2758668 35.6824672,14.8993579 35.6,15.72 L34.74,24.01 C34.6527877,24.8933072 35.2969142,25.680573 36.18,25.77 Z" id="Path" fill="#39B54A"></path>
                            <path d="M21.77,34.34 C18.7324339,34.34 16.27,36.8024339 16.27,39.84 C16.27,42.8775661 18.7324339,45.34 21.77,45.34 C24.8075661,45.34 27.27,42.8775661 27.27,39.84 C27.2644963,36.8047165 24.8052835,34.3455037 21.77,34.34 Z M21.77,42.12 C20.8419739,42.1240437 20.0032626,41.5675908 19.6462519,40.7109741 C19.2892412,39.8543574 19.4845274,38.866967 20.1407472,38.2107472 C20.796967,37.5545274 21.7843574,37.3592412 22.6409741,37.7162519 C23.4975908,38.0732626 24.0540437,38.9119739 24.05,39.84 C24.05,41.0992092 23.0292092,42.12 21.77,42.12 Z" id="Shape" fill="#4A62B5" fill-rule="nonzero"></path>
                            <path d="M40.95,34.34 C37.9124339,34.34 35.45,36.8024339 35.45,39.84 C35.45,42.8775661 37.9124339,45.34 40.95,45.34 C43.9875661,45.34 46.45,42.8775661 46.45,39.84 C46.45,36.8024339 43.9875661,34.34 40.95,34.34 Z M40.95,42.12 C40.0219739,42.1240437 39.1832626,41.5675908 38.8262519,40.7109741 C38.4692412,39.8543574 38.6645274,38.866967 39.3207472,38.2107472 C39.976967,37.5545274 40.9643574,37.3592412 41.8209741,37.7162519 C42.6775908,38.0732626 43.2340437,38.9119739 43.23,39.84 C43.2245231,41.0969336 42.2069336,42.1145231 40.95,42.12 Z" id="Shape" fill="#4A62B5" fill-rule="nonzero"></path>
                            <path d="M50.58,7.37 L13.37,7.37 L11.77,1.21 C11.5913822,0.499309375 10.9527925,0.000797460034 10.22,0 L2.6,0 C1.71082155,0 0.99,0.720821553 0.99,1.61 C0.99,2.49917845 1.71082155,3.22 2.6,3.22 L8.97,3.22 L10.56,9.33 L10.56,9.43 L16.29,31.48 C16.4765154,32.1882727 17.1175819,32.6814008 17.85,32.68 L44.85,32.68 C45.5811125,32.683939 46.2206785,32.1887911 46.4,31.48 L52.15,9.38 C52.2742031,8.89901038 52.1679473,8.38761447 51.8624198,7.99591256 C51.5568923,7.60421066 51.0867556,7.37664182 50.59,7.38 L50.58,7.37 Z M43.58,29.47 L19.12,29.47 L14.21,10.59 L48.5,10.59 L43.58,29.47 Z" id="Shape" fill="#4A62B5" fill-rule="nonzero"></path>
                        </g>
                    </g>
                </g>
            </g>
        </g>
    </g>
</svg>