<?xml version="1.0" encoding="UTF-8"?>
<svg width="50px" height="44px" viewBox="0 0 50 44" version="1.1" xmlns="http://www.w3.org/2000/svg" xmlns:xlink="http://www.w3.org/1999/xlink">
    <!-- Generator: Sketch 52.6 (67491) - http://www.bohemiancoding.com/sketch -->
    <title>Internetinės svetainės ikona</title>
    <desc>Created with Sketch.</desc>
    <g id="Desktop" stroke="none" stroke-width="1" fill="none" fill-rule="evenodd">
        <g id="Pagrindinis-puslapis" transform="translate(-262.000000, -728.000000)">
            <g id="Paslaugos" transform="translate(82.000000, 640.000000)">
                <g id="Internetinės-svetainės-(Paslauga)">
                    <g id="Internetinės-svetainės-ikona" transform="translate(134.000000, 38.000000)">
                        <g id="Internetinės-svetainės-ikona" transform="translate(46.000000, 50.000000)">
                            <rect id="Rectangle" fill="#CEE1F2" x="1" y="2.7" width="4.1" height="38.1"></rect>
                            <path d="M46.1,0.1 L3.9,0.1 C1.7,0.1 0,1.8 0,3.9 C0,5.7 0,37.6 0,39.4 C0,41.5 1.7,43.3 3.9,43.3 L46.1,43.3 C48.2,43.3 50,41.6 50,39.4 C50,37.7 50,5.7 50,3.9 C50,1.8 48.3,0.1 46.1,0.1 Z M46.7,39.4 C46.7,39.7 46.5,40 46.1,40 L3.9,40 C3.6,40 3.3,39.8 3.3,39.4 L3.3,11.7 L46.6,11.7 L46.6,39.4 L46.7,39.4 Z M46.7,8.4 L3.3,8.4 L3.3,3.9 C3.3,3.6 3.5,3.3 3.9,3.3 L46.1,3.3 C46.4,3.3 46.7,3.5 46.7,3.9 L46.7,8.4 Z" id="Shape" fill="#4A62B5" fill-rule="nonzero"></path>
                            <circle id="Oval" fill="#39B54A" cx="8" cy="5.9" r="1.3"></circle>
                            <path d="M12,4.6 C11.3,4.6 10.7,5.2 10.7,5.9 C10.7,6.6 11.3,7.2 12,7.2 C12.7,7.2 13.3,6.6 13.3,5.9 C13.3,5.2 12.7,4.6 12,4.6 Z" id="Path" fill="#39B54A"></path>
                            <path d="M16,4.6 C15.3,4.6 14.7,5.2 14.7,5.9 C14.7,6.6 15.3,7.2 16,7.2 C16.7,7.2 17.3,6.6 17.3,5.9 C17.3,5.2 16.7,4.6 16,4.6 Z" id="Path" fill="#39B54A"></path>
                            <path d="M16.8,21.6 C16.1,21.4 15.4,21.8 15.1,22.4 L14,25.8 L13.1,24.3 C12.9,23.9 12.4,23.7 12,23.7 C11.6,23.7 11.1,23.9 10.9,24.3 L10,25.8 L8.9,22.5 C8.8,22.2 8.6,21.9 8.2,21.7 C7.9,21.5 7.5,21.5 7.2,21.6 C6.9,21.7 6.6,21.9 6.4,22.3 C6.2,22.6 6.2,23 6.3,23.3 L8.2,29.3 C8.4,29.8 8.8,30.1 9.3,30.2 C9.8,30.3 10.3,30 10.6,29.6 L11.9,27.5 L13.2,29.6 C13.5,30 14,30.3 14.5,30.2 C15,30.1 15.4,29.8 15.6,29.3 L17.5,23.3 C17.8,22.6 17.4,21.8 16.8,21.6 Z" id="Path" fill="#39B54A"></path>
                            <path d="M29.8,21.6 C29.5,21.5 29.1,21.5 28.8,21.7 C28.5,21.9 28.3,22.1 28.1,22.5 L27,25.8 L26.1,24.3 C25.6,23.5 24.4,23.5 23.9,24.3 L23,25.8 L21.9,22.5 C21.8,22.2 21.6,21.9 21.2,21.7 C20.9,21.5 20.5,21.5 20.2,21.6 C19.9,21.7 19.6,21.9 19.4,22.3 C19.2,22.6 19.2,23 19.3,23.3 L21.2,29.3 C21.4,29.8 21.8,30.1 22.3,30.2 C22.8,30.3 23.3,30 23.6,29.6 L24.9,27.5 L26.2,29.6 C26.5,30 27,30.3 27.5,30.2 C28,30.1 28.4,29.8 28.6,29.3 L30.5,23.3 C30.6,23 30.6,22.6 30.4,22.3 C30.4,21.9 30.1,21.7 29.8,21.6 Z" id="Path" fill="#39B54A"></path>
                            <path d="M42.8,21.6 C42.5,21.5 42.1,21.5 41.8,21.7 C41.5,21.9 41.3,22.1 41.1,22.5 L40,25.8 L39.1,24.3 C38.9,23.9 38.4,23.7 38,23.7 C37.6,23.7 37.1,23.9 36.9,24.3 L36,25.8 L34.9,22.5 C34.7,21.8 33.9,21.4 33.2,21.7 C32.9,21.8 32.6,22 32.4,22.4 C32.2,22.7 32.2,23.1 32.3,23.4 L34.2,29.4 C34.4,29.9 34.8,30.2 35.3,30.3 C35.8,30.4 36.3,30.1 36.6,29.7 L37.9,27.6 L39.2,29.7 C39.5,30.1 40,30.4 40.5,30.3 C41,30.2 41.4,29.9 41.6,29.4 L43.5,23.4 C43.9,22.6 43.5,21.8 42.8,21.6 Z" id="Path" fill="#39B54A"></path>
                        </g>
                    </g>
                </g>
            </g>
        </g>
    </g>
</svg>